<?xml version="1.0" standalone="no"?>
<!DOCTYPE svg PUBLIC "-//W3C//DTD SVG 1.1//EN" "http://www.w3.org/Graphics/SVG/1.1/DTD/svg11.dtd" >
<svg xmlns="http://www.w3.org/2000/svg">
<metadata>Generated by IcoMoon</metadata>
<defs>
<font id="features-gb" horiz-adv-x="1024">
<font-face units-per-em="1024" ascent="960" descent="-64" />
<missing-glyph horiz-adv-x="1024" />
<glyph unicode="&#x20;" horiz-adv-x="512" d="" />
<glyph unicode="&#xf000;" glyph-name="facebook" d="M816.597 632.96c-4.053 4.48-9.813 7.040-15.829 7.040h-160.768v59.947c0 12.032 2.475 25.813 21.845 25.813h127.488c11.776 0 21.333 9.557 21.333 21.333v168.192c0 11.733-9.515 21.291-21.291 21.333l-184.789 0.555c-204.672 0-220.587-173.739-220.587-226.987v-70.187h-106.667c-11.776 0-21.333-9.557-21.333-21.333v-170.667c0-11.776 9.557-21.333 21.333-21.333h106.667v-490.667c0-11.776 9.557-21.333 21.333-21.333h213.333c11.776 0 21.333 9.557 21.333 21.333v490.667h142.976c10.923 0 20.096 8.235 21.205 19.115l17.792 170.667c0.64 6.016-1.323 11.989-5.376 16.512zM763.733 469.334h-145.067c-11.776 0-21.333-9.557-21.333-21.333v-490.667h-170.667v490.667c0 11.776-9.557 21.333-21.333 21.333h-106.667v128h106.667c11.776 0 21.333 9.557 21.333 21.333v91.52c0 68.821 23.125 184.32 177.877 184.32l163.456-0.512v-125.568h-106.155c-29.781 0-64.512-17.963-64.512-68.48v-81.28c0-11.776 9.557-21.333 21.333-21.333h158.421l-13.355-128z" />
<glyph unicode="&#xf001;" glyph-name="paypal" d="M370.133 477.184h97.664c24.875 0 50.347 7.723 73.685 22.443 8.363 5.333 16.299 11.307 23.637 18.176 21.333 20.096 36.011 44.757 42.197 70.528 11.648 41.6-0.939 81.707-32.896 104.619-16.341 11.776-36.309 18.005-57.771 18.005h-101.973c-9.899 0-18.56-6.869-20.779-16.512l-44.629-191.104c-1.493-6.357 0-13.056 4.053-18.091 4.139-5.12 10.283-8.064 16.811-8.064zM431.701 668.288h85.035c12.459 0 23.765-3.456 32.853-9.984 17.237-12.373 23.467-34.219 16.512-59.221-4.395-18.176-15.104-36.011-30.165-50.176-5.376-5.035-11.264-9.429-17.28-13.269-16.427-10.325-34.005-15.787-50.859-15.787h-70.741l34.645 148.437zM297.771 101.888l59.691 239.445h132.053c157.227 0 280.277 97.408 313.515 248.149 20.352 92.203-7.68 151.723-34.731 185.387-39.509 49.109-104.96 78.464-175.104 78.464h-354.731c-9.899 0-18.517-6.827-20.736-16.512l-169.6-724.949c-1.493-6.315 0-12.971 4.053-18.091s10.197-8.064 16.725-8.064h208.171c9.771 0 18.304 6.656 20.693 16.171zM95.787 128.384l159.616 682.283h337.792c57.344 0 110.379-23.381 141.824-62.507 30.421-37.845 39.552-89.557 26.325-149.461-28.715-130.432-135.424-214.699-271.829-214.699h-148.693c-9.771 0-18.347-6.656-20.693-16.171l-59.691-239.445h-164.651zM913.92 621.142c-5.76 10.24-18.773 13.952-29.056 8.107-10.24-5.76-13.909-18.773-8.107-29.056 20.011-35.541 24.491-79.36 13.269-130.219-28.16-127.872-132.523-211.84-266.027-213.845-11.435-0.213-103.936-0.128-140.203-0.128h-13.355c-9.771 0-18.304-6.656-20.693-16.085l-60.629-240.213h-164.864l8.661 38.443c2.603 11.52-4.651 22.955-16.128 25.515-11.648 2.645-22.912-4.608-25.515-16.085l-14.507-64.469c-1.408-6.357 0.085-12.971 4.139-18.005 4.053-5.077 10.197-8.021 16.683-8.021h208.128c9.771 0 18.304 6.613 20.693 16.085l60.629 240.128c38.528 0 126.72-0.085 137.728 0.171 153.856 2.304 274.347 99.413 306.944 247.296 13.355 60.587 7.211 116.011-17.792 160.384z" />
<glyph unicode="&#xf002;" glyph-name="twitter" d="M1015.040 746.155c-6.144 7.253-16.341 9.643-25.003 5.717-14.763-6.528-27.861-9.813-40.064-10.027 13.781 16.299 19.285 34.005 26.624 57.515l3.755 12.032c2.688 8.448-0.128 17.664-7.040 23.168-6.955 5.547-16.597 6.229-24.192 1.664-32.896-19.499-68.267-33.664-105.301-42.155-39.851 37.803-93.269 59.264-148.437 59.264-118.656 0-215.211-96.555-215.211-215.211 0-6.997 0.341-13.995 0.981-20.907-139.349 14.037-268.587 83.371-357.717 192.768-4.437 5.419-11.52 8.149-18.219 7.808-6.997-0.597-13.269-4.48-16.768-10.539-19.072-32.811-29.141-70.229-29.141-108.245 0-44.587 13.696-87.211 38.315-122.709-2.773 1.323-5.504 2.731-8.192 4.267-6.613 3.669-14.677 2.347-21.163-1.493-6.528-3.84-10.539-12.075-10.539-19.627 0-69.376 33.536-132.651 86.357-172.331-4.992-0.683-9.643-3.115-13.056-6.997-4.992-5.632-6.613-13.483-4.352-20.651 22.229-69.205 77.184-121.131 144.64-140.843-68.011-39.339-147.541-55.68-227.755-46.336-9.813 1.152-19.2-4.651-22.571-13.995-3.371-9.387 0.213-19.797 8.576-25.173 92.373-59.221 199.125-90.453 308.736-90.453 358.613 0 572.928 291.328 572.928 572.971 0 4.779-0.043 9.557-0.128 14.293 4.864 3.413 9.813 6.784 14.805 10.197 33.28 22.741 67.712 46.251 90.581 80.427 5.248 7.893 4.651 18.347-1.451 25.6zM901.803 675.328c-8.491-5.76-16.853-11.52-24.875-17.323-5.845-4.224-9.131-11.093-8.832-18.261 0.341-8.021 0.469-16 0.469-24.107-0.043-260.693-198.357-530.304-530.261-530.304-72.832 0-144.299 14.933-210.475 43.605 77.952 7.509 151.083 36.693 213.461 85.589 7.125 5.547 9.941 15.019 7.083 23.552s-10.795 14.379-19.84 14.549c-62.293 1.152-118.144 35.584-147.627 88.533 19.925-0.128 39.979 2.304 59.307 7.509 9.557 2.645 16.043 11.435 15.701 21.333s-7.424 18.261-17.109 20.224c-69.376 13.952-122.325 69.077-135.339 137.557 20.181-6.869 41.344-10.752 62.677-11.477 10.325-0.683 18.091 5.675 21.035 14.763s-0.512 19.029-8.448 24.32c-48.085 32.128-76.757 85.803-76.757 143.616 0 20.139 3.499 39.979 10.283 58.709 101.419-110.592 242.944-177.579 393.216-185.131 6.997-0.427 13.141 2.475 17.451 7.637 4.309 5.12 5.931 11.989 4.437 18.517-2.944 12.715-4.437 25.984-4.437 39.381 0 95.147 77.397 172.544 172.544 172.544 47.531 0 93.397-19.883 125.952-54.528 5.077-5.333 12.501-7.765 19.669-6.357 27.563 5.461 54.315 13.653 80.043 24.533-5.76-8.875-13.781-15.573-28.373-24.277-6.699-4.011-10.667-11.392-10.368-19.2s4.864-14.805 11.861-18.261c14.165-6.997 28.075-11.179 42.197-12.757-11.179-8.448-22.997-16.555-34.645-24.491z" />
<glyph unicode="&#xf003;" glyph-name="list" d="M874.667 853.334h-85.333c-11.776 0-21.333-9.557-21.333-21.333s9.557-21.333 21.333-21.333h64v-853.333h-725.333v853.333h64c11.776 0 21.333 9.557 21.333 21.333s-9.557 21.333-21.333 21.333h-85.333c-11.776 0-21.333-9.557-21.333-21.333v-896c0-11.776 9.557-21.333 21.333-21.333h768c11.776 0 21.333 9.557 21.333 21.333v896c0 11.776-9.557 21.333-21.333 21.333zM277.333 725.334h426.667c11.776 0 21.333 9.557 21.333 21.333v85.333c0 11.776-9.557 21.333-21.333 21.333h-108.8c-9.899 48.64-52.992 85.333-104.533 85.333s-94.592-36.693-104.533-85.333h-108.8c-11.776 0-21.333-9.557-21.333-21.333v-85.333c0-11.776 9.557-21.333 21.333-21.333zM298.667 810.667h106.667c11.776 0 21.333 9.557 21.333 21.333 0 35.285 28.715 64 64 64s64-28.715 64-64c0-11.776 9.557-21.333 21.333-21.333h106.667v-42.667h-384v42.667zM213.333 746.667c0 11.776-9.557 21.333-21.333 21.333s-21.333-9.557-21.333-21.333v-725.333c0-11.776 9.557-21.333 21.333-21.333h597.333c11.776 0 21.333 9.557 21.333 21.333v725.333c0 11.776-9.557 21.333-21.333 21.333s-21.333-9.557-21.333-21.333v-704h-554.667v704zM405.333 554.667h256c11.776 0 21.333 9.557 21.333 21.333s-9.557 21.333-21.333 21.333h-256c-11.776 0-21.333-9.557-21.333-21.333s9.557-21.333 21.333-21.333zM405.333 426.667h256c11.776 0 21.333 9.557 21.333 21.333s-9.557 21.333-21.333 21.333h-256c-11.776 0-21.333-9.557-21.333-21.333s9.557-21.333 21.333-21.333zM405.333 298.667h256c11.776 0 21.333 9.557 21.333 21.333s-9.557 21.333-21.333 21.333h-256c-11.776 0-21.333-9.557-21.333-21.333s9.557-21.333 21.333-21.333zM405.333 170.667h256c11.776 0 21.333 9.557 21.333 21.333s-9.557 21.333-21.333 21.333h-256c-11.776 0-21.333-9.557-21.333-21.333s9.557-21.333 21.333-21.333zM298.667 554.667h21.333c11.776 0 21.333 9.557 21.333 21.333s-9.557 21.333-21.333 21.333h-21.333c-11.776 0-21.333-9.557-21.333-21.333s9.557-21.333 21.333-21.333zM298.667 426.667h21.333c11.776 0 21.333 9.557 21.333 21.333s-9.557 21.333-21.333 21.333h-21.333c-11.776 0-21.333-9.557-21.333-21.333s9.557-21.333 21.333-21.333zM298.667 298.667h21.333c11.776 0 21.333 9.557 21.333 21.333s-9.557 21.333-21.333 21.333h-21.333c-11.776 0-21.333-9.557-21.333-21.333s9.557-21.333 21.333-21.333zM298.667 170.667h21.333c11.776 0 21.333 9.557 21.333 21.333s-9.557 21.333-21.333 21.333h-21.333c-11.776 0-21.333-9.557-21.333-21.333s9.557-21.333 21.333-21.333z" />
<glyph unicode="&#xf004;" glyph-name="document-missing" d="M426.667 42.667h-384v853.333h426.667v-192c0-11.776 9.557-21.333 21.333-21.333h192v-149.333c0-11.776 9.557-21.333 21.333-21.333s21.333 9.557 21.333 21.333v170.581c0 0.085 0 0.085 0 0.085 0 2.304-0.64 4.395-1.28 6.443-0.171 0.555-0.128 1.152-0.341 1.664-1.109 2.731-2.816 5.163-4.907 7.211l-213.035 213.12c-1.963 1.92-4.309 3.541-6.912 4.565-2.56 1.067-5.333 1.664-8.192 1.664h-469.333c-11.776 0-21.333-9.557-21.333-21.333v-896c0-11.776 9.557-21.333 21.333-21.333h405.333c11.776 0 21.333 9.557 21.333 21.333s-9.557 21.333-21.333 21.333zM512 865.792l140.416-140.459h-140.416v140.459zM746.667 469.334c-152.917 0-277.333-124.416-277.333-277.333s124.416-277.333 277.333-277.333 277.333 124.416 277.333 277.333c0 152.917-124.416 277.333-277.333 277.333zM746.667 426.667c57.045 0 109.355-20.48 150.059-54.443l-330.283-330.283c-33.963 40.747-54.443 93.013-54.443 150.059 0 129.408 105.259 234.667 234.667 234.667zM746.667-42.666c-57.045 0-109.312 20.48-150.059 54.443l330.283 330.283c33.963-40.747 54.443-93.056 54.443-150.059 0-129.408-105.259-234.667-234.667-234.667z" />
<glyph unicode="&#xf005;" glyph-name="document" d="M894.336 669.526c-1.067 2.603-2.645 4.949-4.608 6.912l-255.957 255.957c-1.963 1.92-4.309 3.541-6.912 4.565-2.56 1.109-5.333 1.707-8.192 1.707h-469.333c-11.776 0-21.333-9.557-21.333-21.333v-981.333c0-11.776 9.557-21.333 21.333-21.333h725.333c11.776 0 21.333 9.557 21.333 21.333v725.333c0 2.859-0.597 5.632-1.664 8.192zM640 865.835l183.168-183.168h-183.168v183.168zM170.667-42.666v938.667h426.667v-234.667c0-11.776 9.557-21.333 21.333-21.333h234.667v-682.667h-682.667zM320 597.334h192c11.776 0 21.333 9.557 21.333 21.333s-9.557 21.333-21.333 21.333h-192c-11.776 0-21.333-9.557-21.333-21.333s9.557-21.333 21.333-21.333zM704 512h-384c-11.776 0-21.333-9.557-21.333-21.333s9.557-21.333 21.333-21.333h384c11.776 0 21.333 9.557 21.333 21.333s-9.557 21.333-21.333 21.333zM704 384h-384c-11.776 0-21.333-9.557-21.333-21.333s9.557-21.333 21.333-21.333h384c11.776 0 21.333 9.557 21.333 21.333s-9.557 21.333-21.333 21.333zM704 256h-384c-11.776 0-21.333-9.557-21.333-21.333s9.557-21.333 21.333-21.333h384c11.776 0 21.333 9.557 21.333 21.333s-9.557 21.333-21.333 21.333zM704 128h-384c-11.776 0-21.333-9.557-21.333-21.333s9.557-21.333 21.333-21.333h384c11.776 0 21.333 9.557 21.333 21.333s-9.557 21.333-21.333 21.333z" />
<glyph unicode="&#xf006;" glyph-name="science" d="M856.448 426.667c21.589 24.32 41.045 48.725 57.344 72.789 61.099 90.155 75.776 167.381 41.429 217.344-23.040 33.451-65.92 51.157-123.989 51.157-38.101 0-82.475-8.064-130.048-22.229-38.784 118.101-98.944 192.939-167.851 192.939-68.864 0-129.067-74.837-167.851-192.939-47.573 14.165-91.947 22.229-130.005 22.229-58.069 0-100.949-17.707-123.989-51.157-34.389-49.963-19.669-127.147 41.429-217.344 16.256-24.064 35.712-48.469 57.301-72.789-21.589-24.32-41.045-48.725-57.344-72.789-61.099-90.155-75.776-167.381-41.429-217.344 23.040-33.451 65.92-51.157 123.989-51.157 38.101 0 82.475 8.064 130.048 22.229 38.784-118.101 98.987-192.939 167.851-192.939 68.907 0 129.067 74.837 167.851 192.939 47.573-14.165 91.947-22.229 130.048-22.229 0.043 0 0.043 0 0.043 0 58.027 0 100.907 17.707 123.947 51.157 34.389 49.963 19.669 127.147-41.429 217.344-16.299 24.064-35.755 48.469-57.344 72.789zM831.189 725.291c30.293 0 70.229-5.675 88.832-32.683 23.424-34.005 8.235-95.701-41.6-169.259-14.635-21.632-31.915-43.563-51.157-65.408-25.899 26.539-54.528 52.779-85.419 78.251-5.376 61.355-15.232 118.144-28.715 168.747 43.435 12.928 83.755 20.352 118.059 20.352zM630.059 286.038c-32-22.016-64.427-41.771-96.725-59.776-32.256 18.005-64.725 37.803-96.725 59.776-24.619 16.896-48.128 34.517-70.613 52.48-2.091 28.331-3.328 57.643-3.328 88.149s1.237 59.819 3.328 88.107c22.485 18.005 45.995 35.584 70.613 52.48 32 22.016 64.469 41.771 96.725 59.776 32.299-18.005 64.725-37.803 96.725-59.776 24.619-16.896 48.128-34.517 70.613-52.48 2.091-28.288 3.328-57.6 3.328-88.107s-1.237-59.819-3.328-88.107c-22.485-18.005-45.995-35.584-70.613-52.523zM695.083 280.192c-5.376-43.008-13.141-82.56-22.485-118.272-30.635 11.179-62.251 24.832-94.635 40.96 25.557 14.976 51.072 30.72 76.245 48 13.909 9.557 27.563 19.371 40.875 29.312zM488.704 202.88c-32.384-16.128-64-29.781-94.635-40.96-9.387 35.755-17.109 75.307-22.485 118.272 13.312-9.941 26.965-19.755 40.875-29.355 25.173-17.237 50.688-33.024 76.245-47.957zM321.024 376.363c-18.688 16.597-36.267 33.408-52.693 50.304 16.427 16.896 34.005 33.707 52.693 50.304-0.64-16.555-1.024-33.323-1.024-50.304s0.384-33.749 1.024-50.304zM371.584 573.142c5.376 42.965 13.141 82.517 22.485 118.272 30.635-11.179 62.251-24.832 94.635-40.96-25.557-14.976-51.072-30.72-76.245-48-13.909-9.557-27.563-19.371-40.875-29.312zM577.963 650.454c32.384 16.128 64 29.781 94.635 40.96 9.387-35.755 17.109-75.307 22.485-118.272-13.312 9.941-26.965 19.755-40.875 29.355-25.173 17.237-50.688 33.024-76.245 47.957zM745.643 476.971c18.688-16.597 36.309-33.365 52.693-50.304-16.427-16.896-34.005-33.707-52.693-50.304 0.64 16.555 1.024 33.323 1.024 50.304s-0.384 33.749-1.024 50.304zM533.333 896c45.397 0 93.781-61.099 127.36-163.797-41.131-14.805-83.925-33.664-127.36-56.619-43.435 22.955-86.229 41.813-127.36 56.619 33.579 102.699 81.963 163.797 127.36 163.797zM188.203 523.392c-49.835 73.515-64.981 135.253-41.557 169.216 18.603 27.008 58.539 32.683 88.832 32.683 34.347 0 74.667-7.424 118.059-20.352-13.483-50.603-23.381-107.392-28.757-168.747-30.891-25.472-59.52-51.712-85.419-78.251-19.243 21.888-36.523 43.819-51.157 65.451zM235.477 128.043c-30.293 0-70.229 5.675-88.832 32.683-23.424 34.005-8.235 95.701 41.6 169.259 14.635 21.632 31.915 43.563 51.157 65.408 25.899-26.539 54.528-52.779 85.419-78.251 5.376-61.355 15.232-118.144 28.715-168.747-43.392-12.928-83.755-20.352-118.059-20.352zM533.333-42.666c-45.397 0-93.781 61.099-127.36 163.797 41.131 14.805 83.968 33.664 127.36 56.619 43.477-22.955 86.229-41.813 127.36-56.619-33.579-102.699-81.963-163.797-127.36-163.797zM920.021 160.726c-18.603-27.008-58.539-32.683-88.789-32.683 0 0 0 0-0.043 0-34.347 0-74.624 7.424-118.059 20.352 13.44 50.645 23.339 107.435 28.715 168.747 30.891 25.472 59.52 51.712 85.419 78.251 19.243-21.888 36.523-43.776 51.157-65.408 49.877-73.557 65.024-135.296 41.6-169.259zM533.333 533.334c-58.837 0-106.667-47.829-106.667-106.667s47.829-106.667 106.667-106.667 106.667 47.829 106.667 106.667-47.829 106.667-106.667 106.667zM533.333 362.667c-35.285 0-64 28.715-64 64s28.715 64 64 64 64-28.715 64-64-28.715-64-64-64z" />
<glyph unicode="&#xf007;" glyph-name="brain" d="M1024 576c0 75.563-56.405 138.197-129.323 148.011-9.813 72.917-72.448 129.323-148.011 129.323-31.659 0-61.611-9.813-86.827-28.117-26.837 43.221-74.624 70.784-126.507 70.784-35.2 0-69.163-12.757-96-35.584-26.837 22.827-60.8 35.584-96 35.584-72.235 0-131.968-50.432-145.963-118.784-20.992 1.195-44.971-4.949-69.717-19.029-62.549-35.84-125.653-119.253-125.653-224.853 0-107.861 75.392-190.123 145.365-220.885 27.563-12.075 53.205-15.616 74.24-11.093 13.739-45.269 51.925-75.307 106.112-84.608 19.499-45.397 67.669-110.080 186.283-110.080 14.549 0 28.885 2.304 42.667 6.4v-134.4c0-11.776 9.557-21.333 21.333-21.333h128c11.776 0 21.333 9.557 21.333 21.333v177.237c44.075 13.184 79.744 46.251 96.384 88.747 32.939-12.843 68.907-13.312 103.637-1.195 44.587 15.573 80.085 53.205 92.715 98.176 13.867 49.408 2.517 100.565-29.611 138.368 22.784 26.837 35.541 60.8 35.541 96zM944.469 496.086c-3.328-2.901-5.205-6.955-6.229-11.221-16.768-4.736-46.763-11.563-81.877-12.8 11.051 27.733 32.896 99.157-6.571 158.421-6.613 9.856-19.883 12.459-29.568 5.931-9.771-6.528-12.459-19.797-5.931-29.568 35.115-52.693-0.981-127.232-1.323-128-0.768-1.493-0.896-3.115-1.237-4.693-39.381 4.992-80.469 19.499-113.92 52.949-8.32 8.32-21.845 8.32-30.165 0s-8.32-21.845 0-30.165c53.632-53.632 120.747-68.224 177.963-68.224 52.779 0 96.64 12.331 113.92 17.963 19.968-26.453 27.008-59.733 17.493-93.483-8.917-31.787-34.091-58.368-65.664-69.419-40.277-13.952-72.149-2.603-91.861 9.515-6.016 3.669-13.397 4.096-19.797 1.28-6.4-2.859-11.008-8.661-12.288-15.573-8.149-43.52-43.093-77.696-86.869-85.077-10.325-1.792-17.877-10.667-17.877-21.077v-172.843h-85.333v139.776c1.024 3.541 0.896 7.296 0 11.008v21.376c0 69.76 56.747 126.507 128 126.507 11.776 0 20.565 9.557 20.565 21.333s-10.283 21.333-22.059 21.333c-93.312 0-169.173-75.861-169.173-169.173v-12.928c-13.44-5.973-27.776-9.899-42.667-9.899-75.435 0-115.2 30.549-136.405 64h115.072c11.776 0 21.333 9.557 21.333 21.333s-9.557 21.333-21.333 21.333h-86.485c-1.109 46.251 4.992 163.669 93.269 193.067 11.179 3.755 17.195 15.829 13.483 27.008-3.755 11.179-15.829 17.152-27.008 13.483-115.371-38.443-123.947-177.237-122.539-233.557-30.805 0.213-99.755 8.448-104.533 78.037-0.597 8.149-5.803 15.317-13.355 18.389-7.68 2.944-16.299 1.408-22.315-4.139-10.027-9.216-32.981-8.064-58.581 3.157-59.648 26.24-119.936 97.109-119.936 181.888 0 22.272 3.328 43.349 9.131 62.891 32.085 2.048 174.037 6.699 205.739-72.533 3.328-8.32 11.349-13.397 19.797-13.397 2.645 0 5.333 0.512 7.936 1.536 10.965 4.395 16.256 16.811 11.861 27.691-37.547 93.909-167.339 101.76-226.773 100.309 20.011 36.608 48.171 65.067 76.501 81.28 22.741 13.013 44.672 17.152 55.979 10.496 6.528-3.712 14.592-3.883 21.163-0.213 6.613 3.669 10.795 10.539 11.008 18.091 1.579 58.24 48.299 103.851 106.325 103.851 30.336 0 59.477-13.397 79.957-36.821 1.493-1.707 3.456-2.773 5.376-3.84v-87.339c0-23.552-19.115-42.667-42.667-42.667s-42.667 19.115-42.667 42.667c0 11.776-9.557 21.333-21.333 21.333s-21.333-9.557-21.333-21.333c0-47.061 38.272-85.333 85.333-85.333 25.6 0 48.341 11.563 64 29.483 15.659-17.92 38.4-29.483 64-29.483 47.061 0 85.333 38.272 85.333 85.333 0 11.776-9.557 21.333-21.333 21.333s-21.333-9.557-21.333-21.333c0-23.552-19.115-42.667-42.667-42.667s-42.667 19.115-42.667 42.667v105.941c18.475 14.123 40.832 22.059 64 22.059 44.203 0 84.309-28.117 99.712-69.973 2.56-6.955 8.533-12.075 15.829-13.525 7.168-1.579 14.805 0.981 19.797 6.4 20.565 22.229 48.299 34.432 77.995 34.432 58.837 0 106.667-47.829 106.667-106.667 0-11.776 9.557-21.333 21.333-21.333 58.837 0 106.667-47.829 106.667-106.667 0-30.336-13.397-59.52-36.864-79.915z" />
<glyph unicode="&#xf008;" glyph-name="apple" d="M484.565 650.112c-23.765 13.739-56.363 32.555-143.232 32.555-143.531 0-256-140.544-256-320 0-168.789 129.621-448 277.333-448 76.885 0 99.456 14.592 119.211 32.171 8.021 7.211 11.733 10.496 30.123 10.496s22.101-3.285 30.123-10.496c19.755-17.579 42.325-32.171 119.211-32.171 147.712 0 277.333 279.211 277.333 448 0 179.456-112.469 320-256 320-86.869 0-119.467-18.816-143.232-32.555-2.432-1.365-4.011-2.005-6.101-3.115v57.003c0 58.837-47.829 106.667-106.667 106.667h-85.333c-11.776 0-21.333-9.557-21.333-21.333s9.557-21.333 21.333-21.333h85.333c35.285 0 64-28.715 64-64v-57.003c-2.091 1.109-3.669 1.749-6.101 3.115zM560.768 613.163c20.693 11.947 46.464 26.837 121.899 26.837 119.637 0 213.333-121.813 213.333-277.333 0-163.755-123.605-405.333-234.667-405.333-66.816 0-79.573 11.349-90.795 21.376-13.525 12.032-26.453 21.291-58.539 21.291s-45.013-9.259-58.539-21.291c-11.221-10.027-23.979-21.376-90.795-21.376-111.061 0-234.667 241.579-234.667 405.333 0 155.52 93.696 277.333 213.333 277.333 75.435 0 101.205-14.891 121.899-26.837 13.525-7.808 27.435-15.829 48.768-15.829s35.243 8.021 48.768 15.829zM810.667 917.334c0 11.776-9.557 21.333-21.333 21.333-117.632 0-213.333-95.701-213.333-213.333 0-11.776 9.557-21.333 21.333-21.333 117.632 0 213.333 95.701 213.333 213.333zM766.464 894.464c-10.155-75.819-70.4-136.064-146.261-146.261 10.155 75.819 70.443 136.107 146.261 146.261z" />
<glyph unicode="&#xf009;" glyph-name="group-2" d="M512 640c70.571 0 128 57.429 128 128s-57.429 128-128 128-128-57.429-128-128 57.429-128 128-128zM512 853.334c47.061 0 85.333-38.229 85.333-85.333 0-47.061-38.272-85.333-85.333-85.333s-85.333 38.272-85.333 85.333c0 47.104 38.272 85.333 85.333 85.333zM810.667 640c47.061 0 85.333 38.272 85.333 85.333 0 47.104-38.272 85.333-85.333 85.333s-85.333-38.229-85.333-85.333c0-47.061 38.272-85.333 85.333-85.333zM810.667 768c23.509 0 42.667-19.157 42.667-42.667s-19.157-42.667-42.667-42.667-42.667 19.157-42.667 42.667c0 23.509 19.157 42.667 42.667 42.667zM213.333 640c47.061 0 85.333 38.272 85.333 85.333 0 47.104-38.272 85.333-85.333 85.333s-85.333-38.229-85.333-85.333c0-47.061 38.272-85.333 85.333-85.333zM213.333 768c23.509 0 42.667-19.157 42.667-42.667s-19.157-42.667-42.667-42.667-42.667 19.157-42.667 42.667c0 23.509 19.157 42.667 42.667 42.667zM727.125 162.134c-11.563 0.981-22.059-7.723-23.040-19.456s7.723-22.059 19.456-23.040c194.475-16.384 253.013-47.957 258.176-53.547-12.544-23.723-180.224-66.091-469.717-66.091-289.451 0-457.173 42.368-469.717 61.909 5.12 9.728 63.275 41.131 256.384 57.557 11.733 0.981 20.437 11.307 19.456 23.083-0.981 11.733-11.136 20.693-23.083 19.456-195.755-16.683-295.040-49.664-295.040-98.005 0-103.68 459.605-106.667 512-106.667s512 2.987 512 106.667c0 48.512-99.883 81.536-296.875 98.133zM405.333 170.667h213.333c11.776 0 21.333 9.557 21.333 21.333v277.333c0 70.571-57.429 128-128 128s-128-57.429-128-128v-277.333c0-11.776 9.557-21.333 21.333-21.333zM426.667 469.334c0 47.104 38.272 85.333 85.333 85.333s85.333-38.229 85.333-85.333v-256h-170.667v256zM746.667 256h128c11.776 0 21.333 9.557 21.333 21.333v234.667c0 47.104-38.272 85.333-85.333 85.333s-85.333-38.229-85.333-85.333v-234.667c0-11.776 9.557-21.333 21.333-21.333zM768 512c0 23.509 19.157 42.667 42.667 42.667s42.667-19.157 42.667-42.667v-213.333h-85.333v213.333zM149.333 256h128c11.776 0 21.333 9.557 21.333 21.333v234.667c0 47.104-38.272 85.333-85.333 85.333s-85.333-38.229-85.333-85.333v-234.667c0-11.776 9.557-21.333 21.333-21.333zM170.667 512c0 23.509 19.157 42.667 42.667 42.667s42.667-19.157 42.667-42.667v-213.333h-85.333v213.333z" />
<glyph unicode="&#xf010;" glyph-name="lab" d="M512 536.278v278.315c24.789 8.832 42.667 32.341 42.667 60.075 0 35.285-28.715 64-64 64h-170.667c-35.285 0-64-28.715-64-64 0-27.733 17.877-51.243 42.667-60.075v-278.272c-126.379-44.757-213.333-166.528-213.333-301.611 0-176.512 143.531-320.043 320-320.043s320 143.531 320 320c0 135.083-86.955 256.896-213.333 301.611zM320 896h170.667c11.733 0 21.333-9.6 21.333-21.333s-9.6-21.333-21.333-21.333h-170.667c-11.733 0-21.333 9.6-21.333 21.333s9.6 21.333 21.333 21.333zM326.101 500.352c9.003 2.688 15.232 10.965 15.232 20.437v289.877h128v-289.877c0-9.472 6.229-17.749 15.232-20.437 116.651-34.731 198.101-143.957 198.101-265.685 0-22.059-2.859-43.435-7.765-64h-539.136c-4.907 20.565-7.765 41.941-7.765 64 0 121.728 81.451 230.955 198.101 265.685zM405.333-42.666c-115.115 0-214.059 70.528-255.915 170.667h511.829c-41.856-100.139-140.8-170.667-255.915-170.667zM917.333 810.667h-256c-11.776 0-21.333-9.557-21.333-21.333v-277.333c0-11.776 9.557-21.333 21.333-21.333s21.333 9.557 21.333 21.333v256h213.333v-170.667h-106.667c-11.776 0-21.333-9.557-21.333-21.333s9.557-21.333 21.333-21.333h106.667v-85.333h-42.667c-11.776 0-21.333-9.557-21.333-21.333s9.557-21.333 21.333-21.333h42.667v-85.333h-106.667c-11.776 0-21.333-9.557-21.333-21.333s9.557-21.333 21.333-21.333h106.667v-85.333h-42.667c-11.776 0-21.333-9.557-21.333-21.333s9.557-21.333 21.333-21.333h42.667v-106.667c0-58.837-47.829-106.667-106.667-106.667-37.973 0-73.344 20.437-92.373 53.291-5.931 10.24-19.072 13.696-29.141 7.808-10.197-5.888-13.696-18.944-7.808-29.141 26.667-46.037 76.203-74.624 129.323-74.624 82.347 0 149.333 66.987 149.333 149.333v725.333c0 11.776-9.557 21.333-21.333 21.333z" />
<glyph unicode="&#xf011;" glyph-name="dna" d="M1016.704 636.971c-3.968 11.136-16.128 16.811-27.264 12.928-10.624-3.797-21.504-6.955-32.512-9.643l-205.355 205.397c2.645 11.093 5.803 22.144 9.728 32.981 3.968 11.093-1.792 23.296-12.885 27.307-10.923 3.797-23.296-1.749-27.307-12.885-30.976-86.187-28.16-179.968 7.893-264.064 20.011-46.592 27.264-96.853 23.552-146.389l-158.635 158.635c19.925 1.493 39.936 1.621 59.861-0.683 11.392-1.195 22.272 7.040 23.637 18.773 1.323 11.691-7.083 22.272-18.773 23.637-110.677 12.416-223.317-27.136-302.208-105.941-105.344-105.344-137.472-266.325-79.957-400.64 20.224-47.104 28.501-97.621 24.917-147.712l-161.024 161.024c21.376 1.493 42.795 1.28 63.915-1.536 11.349-1.536 22.4 6.613 23.979 18.347 1.536 11.691-6.656 22.4-18.347 23.979-56.661 7.552-115.115 1.28-169.045-17.963-11.136-3.968-16.896-16.171-12.928-27.264 3.115-8.747 11.349-14.165 20.096-14.165 2.389 0 4.779 0.427 7.168 1.237 10.667 3.797 21.632 6.827 32.64 9.515l205.269-205.269c-2.688-11.264-5.888-22.357-9.813-33.365-4.011-11.093 1.749-23.339 12.843-27.349 2.389-0.768 4.821-1.195 7.211-1.195 8.747 0 16.896 5.419 20.096 14.080 31.104 86.272 28.331 180.224-7.765 264.491-19.968 46.592-27.264 96.853-23.552 146.389l158.549-158.549c-16.256-1.237-32.555-1.749-48.853-0.512-11.691 1.579-22.016-7.808-22.912-19.584-0.939-11.733 7.851-22.016 19.584-22.912 9.216-0.768 18.475-1.067 27.691-1.067 96.896 0 193.195 39.339 262.059 108.16 105.344 105.387 137.472 266.368 79.957 400.683-20.181 47.104-28.459 97.621-24.875 147.669l160.939-160.896c-18.389-1.28-36.779-1.493-55.040 0.427-11.733 1.579-22.229-7.296-23.424-18.987-1.237-11.691 7.296-22.229 18.987-23.424 12.288-1.28 24.619-1.92 36.992-1.92 41.429 0 82.944 7.125 121.899 21.035 11.221 3.925 16.981 16.128 13.013 27.221zM744.149 430.678c-7.211-30.123-18.645-59.221-34.219-86.443l-254.549 254.549c27.051 15.403 55.979 27.221 86.187 34.517l202.581-202.624zM300.544 391.595c7.211 30.123 18.645 59.221 34.219 86.4l254.507-254.464c-27.051-15.317-56.021-27.136-86.229-34.475l-202.496 202.539zM625.664 247.467l-266.965 266.965c8.619 11.307 17.707 22.229 27.861 32.469 10.155 10.112 21.12 19.285 32.384 27.947l267.093-267.051c-8.619-11.264-17.707-22.229-27.904-32.469-10.112-10.112-21.077-19.243-32.469-27.861z" />
<glyph unicode="&#xf012;" glyph-name="test-tube" d="M554.667 362.667c0 35.285-28.715 64-64 64s-64-28.715-64-64 28.715-64 64-64 64 28.715 64 64zM469.333 362.667c0 11.733 9.6 21.333 21.333 21.333s21.333-9.6 21.333-21.333-9.6-21.333-21.333-21.333-21.333 9.6-21.333 21.333zM576 576c-35.285 0-64-28.715-64-64s28.715-64 64-64 64 28.715 64 64-28.715 64-64 64zM576 490.667c-11.733 0-21.333 9.6-21.333 21.333s9.6 21.333 21.333 21.333 21.333-9.6 21.333-21.333-9.6-21.333-21.333-21.333zM533.333 192c-35.285 0-64-28.715-64-64s28.715-64 64-64 64 28.715 64 64-28.715 64-64 64zM533.333 106.667c-11.733 0-21.333 9.6-21.333 21.333s9.6 21.333 21.333 21.333 21.333-9.6 21.333-21.333-9.6-21.333-21.333-21.333zM764.331 929.28c-3.968 5.888-10.581 9.387-17.664 9.387h-426.667c-7.083 0-13.696-3.499-17.664-9.387s-4.736-13.312-2.133-19.883c27.307-68.267 41.131-140.16 41.131-213.589v-589.141c0-105.856 86.144-192 192-192s192 86.144 192 192v589.141c0 73.472 13.824 145.323 41.131 213.632 2.603 6.571 1.835 13.995-2.133 19.84zM533.333-42.666c-82.347 0-149.333 66.987-149.333 149.333v533.333h298.667v-533.333c0-82.347-66.987-149.333-149.333-149.333zM682.667 695.808v-13.141h-298.667v13.141c0 68.48-11.221 135.68-33.323 200.192h365.312c-22.101-64.512-33.323-131.712-33.323-200.192z" />
<glyph unicode="&#xf013;" glyph-name="stopwatch" d="M827.904 627.072l46.763 46.763 6.229-6.229c4.181-4.181 9.643-6.272 15.104-6.272s10.923 2.091 15.104 6.229c8.32 8.32 8.32 21.845 0 30.165l-42.667 42.667c-8.32 8.32-21.845 8.32-30.165 0s-8.32-21.845 0-30.165l6.229-6.229-46.763-46.763c-55.595 50.347-124.203 86.613-200.405 102.144v136.619h42.667c11.776 0 21.333 9.557 21.333 21.333s-9.557 21.333-21.333 21.333h-256c-11.776 0-21.333-9.557-21.333-21.333s9.557-21.333 21.333-21.333h42.667v-136.619c-194.517-39.637-341.333-212.011-341.333-418.048 0-235.307 191.403-426.667 426.667-426.667s426.667 191.36 426.667 426.667c0 109.995-42.155 210.005-110.763 285.739zM469.333 896h85.333v-130.176c-14.037 1.408-28.288 2.176-42.667 2.176s-28.629-0.768-42.667-2.176v130.176zM512-42.666c-211.712 0-384 172.288-384 384s172.288 384 384 384 384-172.288 384-384-172.288-384-384-384zM335.104 548.438c-8.32 8.32-21.845 8.32-30.165 0s-8.32-21.845 0-30.165l192-192c8.32-8.32 21.845-8.32 30.165 0s8.32 21.845 0 30.165l-192 192z" />
<glyph unicode="&#xf014;" glyph-name="email" d="M1014.869 529.494l-490.667 341.333c-7.339 5.077-17.024 5.077-24.363 0l-490.667-341.333c-5.717-3.968-9.173-11.776-9.173-17.493v-469.333c0-47.061 38.272-85.333 85.333-85.333h853.333c47.061 0 85.333 38.272 85.333 85.333v469.333c0 5.461-3.328 13.483-9.131 17.493zM938.667-0h-853.333c-23.509 0-42.667 19.157-42.667 42.667v429.44l222.848-148.523c3.627-2.432 7.723-3.584 11.819-3.584 6.912 0 13.653 3.328 17.792 9.515 6.528 9.813 3.883 23.040-5.931 29.568l-229.973 153.301 452.779 314.965 452.779-314.965-229.931-153.301c-9.813-6.528-12.459-19.755-5.931-29.568 4.096-6.187 10.88-9.515 17.749-9.515 4.053 0 8.149 1.152 11.819 3.584l222.848 148.523v-429.44c0-23.509-19.157-42.667-42.667-42.667zM673.579 294.784c-3.584 2.517-7.851 3.883-12.245 3.883h-298.667c-4.395 0-8.661-1.365-12.245-3.883l-213.333-149.333c-9.685-6.741-11.989-20.053-5.248-29.653 6.784-9.728 20.096-12.032 29.696-5.291l207.872 145.493h285.227l207.829-145.493c9.685-6.784 22.997-4.395 29.696 5.291 6.741 9.643 4.437 22.955-5.248 29.653l-213.333 149.333z" />
<glyph unicode="&#xf015;" glyph-name="drink" d="M618.667 853.206h-106.667v85.333h-42.667v-85.333h-106.667c-58.795 0-106.667-47.829-106.667-106.667v-149.333c0-5.504 2.133-10.837 5.973-14.805l89.6-93.056-89.387-90.496c-4.011-3.968-6.187-9.344-6.187-14.976v-362.667c0-58.837 47.872-106.667 106.667-106.667h256c58.795 0 106.667 47.829 106.667 106.667v362.667c0 5.76-2.304 11.264-6.443 15.275l-91.392 89.088 91.776 94.037c3.883 4.011 6.059 9.344 6.059 14.933v149.333c0 58.837-47.872 106.667-106.667 106.667zM298.667 746.539c0 35.285 28.715 64 64 64h256c35.285 0 64-28.715 64-64v-21.333h-384v21.333zM682.667 605.867l-100.608-103.083c-3.968-4.096-6.144-9.557-6.059-15.147 0.043-5.675 2.389-11.093 6.443-15.061l100.224-97.707v-353.664c0-35.285-28.715-64-64-64h-256c-35.285 0-64 28.715-64 64v353.92l97.835 99.072c8.107 8.235 8.192 21.461 0.171 29.781l-98.005 101.803v76.757h384v-76.672zM426.667 213.206h91.221l-67.072-117.419c-5.845-10.197-2.304-23.253 7.936-29.141 3.328-1.877 6.997-2.773 10.581-2.773 7.424 0 14.592 3.883 18.56 10.752l85.333 149.333c3.755 6.571 3.755 14.72-0.043 21.291-3.84 6.571-10.837 10.624-18.475 10.624h-88.149l63.232 94.848c6.528 9.771 3.883 23.040-5.931 29.568s-23.083 3.925-29.568-5.931l-85.333-128c-4.352-6.528-4.779-14.976-1.067-21.931 3.669-6.869 10.88-11.221 18.773-11.221z" />
<glyph unicode="&#xf016;" glyph-name="soccer" d="M512 938.539c-282.325 0-512-229.675-512-512s229.675-512 512-512 512 229.675 512 512-229.717 512-512 512zM917.333 191.104l-179.115-41.259-66.731 74.496 74.411 229.76 114.645 61.568 118.4-136.235c-6.869-68.181-28.715-131.84-61.611-188.331zM286.933 149.76l-180.437 41.6c-32.683 56.021-54.4 119.168-61.355 186.795l119.808 137.899 111.957-54.699 76.8-237.013-66.773-74.581zM137.557 549.59l-94.165-108.416c2.859 92.715 32.341 178.731 81.621 250.411l12.544-141.995zM393.301 240.555l-73.856 227.883 193.067 140.715 193.109-140.715-73.771-227.883h-238.549zM887.467 549.718l12.459 140.587c48.469-71.040 77.44-156.117 80.597-247.637l-93.056 107.051zM861.355 738.816l-16.128-182.912-107.733-57.899-203.605 148.395v139.221l165.803 70.784c62.123-27.221 117.035-67.712 161.664-117.589zM640.469 877.526l-127.957-54.613-128.299 54.827c40.661 11.563 83.413 18.133 127.787 18.133 44.587 0 87.595-6.613 128.469-18.347zM324.821 856.704l166.357-71.083v-139.221l-198.997-145.067-112.384 54.955-16.213 183.637c44.587 49.536 99.328 89.728 161.237 116.779zM141.525 139.478l139.264-32.085 73.003-122.112c-84.693 30.379-158.037 84.352-212.267 154.197zM413.995-32.341l-93.184 155.904 66.517 74.283h250.496l66.517-74.197-92.843-155.563c-32.128-6.997-65.365-10.88-99.499-10.88-33.621 0-66.389 3.712-98.005 10.453zM671.744-14.165l72.619 121.643 137.899 31.787c-53.845-69.291-126.592-122.923-210.517-153.429z" />
<glyph unicode="&#xf017;" glyph-name="glasses" d="M853.333 810.667c-11.776 0-21.333-9.557-21.333-21.333s9.557-21.333 21.333-21.333c23.552 0 42.667-19.115 42.667-42.667v-405.888c-17.877 13.568-39.893 21.888-64 21.888h-170.667c-48.896 0-89.771-33.237-102.315-78.251-13.525 8.96-29.653 14.251-47.019 14.251s-33.493-5.291-47.019-14.251c-12.544 45.013-53.419 78.251-102.315 78.251h-170.667c-24.107 0-46.123-8.32-64-21.888v405.888c0 23.552 19.115 42.667 42.667 42.667 11.776 0 21.333 9.557 21.333 21.333s-9.557 21.333-21.333 21.333c-47.061 0-85.333-38.272-85.333-85.333v-618.667c0-58.837 47.829-106.667 106.667-106.667h170.667c58.837 0 106.667 47.829 106.667 106.667v85.333c0 23.552 19.115 42.667 42.667 42.667s42.667-19.115 42.667-42.667v-85.333c0-58.837 47.829-106.667 106.667-106.667h170.667c58.837 0 106.667 47.829 106.667 106.667v618.667c0 47.061-38.272 85.333-85.333 85.333zM426.667 106.667c0-35.285-28.715-64-64-64h-170.667c-35.285 0-64 28.715-64 64v128c0 35.285 28.715 64 64 64h170.667c35.285 0 64-28.715 64-64v-128zM896 106.667c0-35.285-28.715-64-64-64h-170.667c-35.285 0-64 28.715-64 64v128c0 35.285 28.715 64 64 64h170.667c35.285 0 64-28.715 64-64v-128z" />
<glyph unicode="&#xf018;" glyph-name="leaf" d="M953.728 868.438c-4.565 4.565-10.88 6.827-17.408 6.144-29.355-3.243-720.427-82.773-876.885-415.061-55.381-117.589-35.925-251.819 56.277-398.933l-24.149-24.149c-8.32-8.32-8.32-21.845 0-30.165 4.181-4.181 9.643-6.272 15.104-6.272s10.923 2.091 15.104 6.229l23.979 23.979c91.819-57.6 179.285-87.125 260.096-87.125 449.109 0 549.973 870.784 554.027 907.861 0.683 6.485-1.579 12.885-6.144 17.493zM405.803-14.208c-70.315 0-147.328 25.6-229.12 75.435l109.44 109.44h204.544c11.776 0 21.333 9.557 21.333 21.333s-9.557 21.333-21.333 21.333h-161.877l128 128h140.544c11.776 0 21.333 9.557 21.333 21.333s-9.557 21.333-21.333 21.333h-97.877l128 128h55.211c11.776 0 21.333 9.557 21.333 21.333s-9.557 21.333-21.333 21.333h-42.667v42.667c0 11.776-9.557 21.333-21.333 21.333s-21.333-9.557-21.333-21.333v-55.083l-128-128.043v97.792c0 11.776-9.557 21.333-21.333 21.333s-21.333-9.557-21.333-21.333v-140.459l-128-128.043v161.835c0 11.776-9.557 21.333-21.333 21.333s-21.333-9.557-21.333-21.333v-204.501l-109.227-109.269c-79.531 130.645-96.469 248.32-48.725 349.696 129.579 275.456 686.080 369.067 815.829 387.328-20.693-147.157-138.453-842.795-508.075-842.795z" />
<glyph unicode="&#xf019;" glyph-name="hand-squeezer" d="M832 469.334h-87.168c-14.293 104.363-126.635 240.683-202.24 295.424 20.139 15.616 33.408 39.808 33.408 67.243 0 47.061-38.272 85.333-85.333 85.333s-85.333-38.272-85.333-85.333c0-27.435 13.269-51.627 33.408-67.243-75.605-54.741-187.947-191.061-202.24-295.424h-87.168c-11.776 0-21.333-9.557-21.333-21.333v-405.333c0-70.571 57.429-128 128-128s128 57.429 128 128v405.333c0 11.776-9.557 21.333-21.333 21.333h-83.456c18.603 116.224 177.152 272.512 210.901 277.376 34.731-4.864 193.408-161.152 212.011-277.376h-83.456c-11.776 0-21.333-9.557-21.333-21.333v-405.333c0-70.571 57.429-128 128-128s128 57.429 128 128v405.333c0 11.776-9.557 21.333-21.333 21.333zM341.333 42.667c0-47.061-38.272-85.333-85.333-85.333s-85.333 38.272-85.333 85.333v384h170.667v-384zM448 832c0 23.552 19.157 42.667 42.667 42.667s42.667-19.115 42.667-42.667-19.157-42.667-42.667-42.667-42.667 19.115-42.667 42.667zM810.667 42.667c0-47.061-38.272-85.333-85.333-85.333s-85.333 38.272-85.333 85.333v384h170.667v-384zM234.667 362.667c-11.776 0-21.333-9.557-21.333-21.333v-106.667c0-11.776 9.557-21.333 21.333-21.333s21.333 9.557 21.333 21.333v106.667c0 11.776-9.557 21.333-21.333 21.333zM234.667 170.667c-11.776 0-21.333-9.557-21.333-21.333v-21.333c0-11.776 9.557-21.333 21.333-21.333s21.333 9.557 21.333 21.333v21.333c0 11.776-9.557 21.333-21.333 21.333zM725.333 234.667c0-11.776 9.557-21.333 21.333-21.333s21.333 9.557 21.333 21.333v106.667c0 11.776-9.557 21.333-21.333 21.333s-21.333-9.557-21.333-21.333v-106.667zM746.667 170.667c-11.776 0-21.333-9.557-21.333-21.333v-21.333c0-11.776 9.557-21.333 21.333-21.333s21.333 9.557 21.333 21.333v21.333c0 11.776-9.557 21.333-21.333 21.333z" />
<glyph unicode="&#xf020;" glyph-name="boxing" d="M902.656 845.227c-53.973 59.307-130.859 93.355-210.944 93.355h-286.379c-105.856 0-192-86.144-192-192v-55.979c-21.205 20.395-49.451 32.64-82.901 34.389-34.901 2.219-65.067-8.448-87.595-29.824-27.648-26.24-42.837-68.608-42.837-119.296 0-268.373 159.147-342.229 213.333-359.637v-195.029c0-58.837 47.872-106.667 106.667-106.667h426.667c58.795 0 106.667 47.829 106.667 106.667v284.757c28.117 23.083 102.101 103.339 122.581 319.445 7.595 80.128-19.115 160.256-73.259 219.819zM554.667 213.206v-170.667h-298.667v170.667h298.667zM933.419 629.419c-22.528-237.483-111.317-293.717-112-294.101-6.656-3.755-10.752-10.88-10.752-18.56v-295.552c0-35.285-28.715-64-64-64h-426.667c-27.776 0-51.243 17.877-60.075 42.667h316.075c11.776 0 21.333 9.557 21.333 21.333v213.333c0 11.776-9.557 21.333-21.333 21.333h-341.333c-1.152 0-2.133-0.469-3.243-0.64-33.707 8.96-188.757 64.256-188.757 320.64 0 38.869 10.496 70.229 29.568 88.32 12.843 12.16 29.781 18.347 50.347 18.347 1.835 0 3.755-0.043 5.632-0.128 78.933-4.181 85.12-82.56 85.12-106.539 0-94.933 69.973-149.333 192-149.333h298.667c148.437 0 148.437 144.512 148.437 192 0 11.776-9.557 21.333-21.333 21.333s-21.333-9.557-21.333-21.333c0-131.243-50.816-149.333-105.771-149.333h-298.667c-99.072 0-149.333 35.883-149.333 106.667v170.667c0 82.347 66.987 149.333 149.333 149.333h286.379c68.139 0 133.504-28.928 179.413-79.36 46.080-50.688 68.779-118.869 62.293-187.093z" />
<glyph unicode="&#xf021;" glyph-name="group-1" d="M234.667 554.667h-213.333c-11.776 0-21.333-9.557-21.333-21.333v-128c0-46.208 14.336-73.813 42.667-82.432v-173.568c0-11.776 9.557-21.333 21.333-21.333h128c11.776 0 21.333 9.557 21.333 21.333v173.568c28.288 8.619 42.624 36.224 42.667 82.432v128c0 11.776-9.557 21.333-21.333 21.333zM213.333 405.334c-0.043-42.667-11.861-42.667-21.333-42.667-11.776 0-21.333-9.557-21.333-21.333v-170.667h-85.333v170.667c0 11.776-9.557 21.333-21.333 21.333-9.515 0-21.333 0-21.333 42.667v106.667h170.667v-106.667zM1002.667 554.667h-213.333c-11.776 0-21.333-9.557-21.333-21.333v-128c0-46.208 14.336-73.813 42.667-82.432v-173.568c0-11.776 9.557-21.333 21.333-21.333h128c11.776 0 21.333 9.557 21.333 21.333v173.568c28.288 8.619 42.624 36.224 42.667 82.432v128c0 11.776-9.557 21.333-21.333 21.333zM981.333 405.334c-0.043-42.667-11.861-42.667-21.333-42.667-11.776 0-21.333-9.557-21.333-21.333v-170.667h-85.333v170.667c0 11.776-9.557 21.333-21.333 21.333-9.515 0-21.333 0-21.333 42.667v106.667h170.667v-106.667zM661.333 554.667h-298.667c-11.776 0-21.333-9.557-21.333-21.333v-213.333c0-51.541 36.693-94.592 85.333-104.533v-236.8c0-11.776 9.557-21.333 21.333-21.333h128c11.776 0 21.333 9.557 21.333 21.333v236.8c48.64 9.899 85.333 52.992 85.333 104.533v213.333c0 11.776-9.557 21.333-21.333 21.333zM640 320c0-35.285-28.715-64-64-64-11.776 0-21.333-9.557-21.333-21.333v-234.667h-85.333v234.667c0 11.776-9.557 21.333-21.333 21.333-35.285 0-64 28.715-64 64v192h256v-192zM128 597.334c47.061 0 85.333 38.272 85.333 85.333 0 47.104-38.272 85.333-85.333 85.333s-85.333-38.229-85.333-85.333c0-47.061 38.272-85.333 85.333-85.333zM128 725.334c23.509 0 42.667-19.157 42.667-42.667s-19.157-42.667-42.667-42.667-42.667 19.157-42.667 42.667c0 23.509 19.157 42.667 42.667 42.667zM896 597.334c47.061 0 85.333 38.272 85.333 85.333 0 47.104-38.272 85.333-85.333 85.333s-85.333-38.229-85.333-85.333c0-47.061 38.272-85.333 85.333-85.333zM896 725.334c23.509 0 42.667-19.157 42.667-42.667s-19.157-42.667-42.667-42.667-42.667 19.157-42.667 42.667c0 23.509 19.157 42.667 42.667 42.667zM512 597.334c70.571 0 128 57.429 128 128s-57.429 128-128 128-128-57.429-128-128 57.429-128 128-128zM512 810.667c47.061 0 85.333-38.229 85.333-85.333 0-47.061-38.272-85.333-85.333-85.333s-85.333 38.272-85.333 85.333c0 47.104 38.272 85.333 85.333 85.333z" />
<glyph unicode="&#xf022;" glyph-name="heart-beat" d="M1002.667 341.334h-320c-8.064 0-15.445-4.565-19.072-11.776l-39.467-78.933-70.272 245.973c-2.432 8.448-9.771 14.592-18.56 15.403-8.789 0.939-17.109-3.84-21.035-11.691l-90.197-180.437-64.939 97.365c-3.84 5.76-10.24 9.301-17.152 9.515-7.125 0.256-13.483-2.944-17.664-8.533l-57.643-76.885h-245.333c-11.776 0-21.333-9.557-21.333-21.333s9.557-21.333 21.333-21.333h256c6.699 0 13.056 3.157 17.067 8.533l45.867 61.227 68.608-102.869c4.224-6.315 11.648-9.728 19.072-9.472 7.595 0.469 14.336 4.949 17.749 11.733l82.133 164.267 70.272-245.931c2.432-8.448 9.771-14.549 18.56-15.403 0.725-0.085 1.323-0.085 2.005-0.085 8.021 0 15.445 4.523 19.072 11.776l58.112 116.224h306.816c11.776 0 21.333 9.557 21.333 21.333s-9.557 21.333-21.333 21.333zM102.869 384.043c2.688 0 5.419 0.512 8.064 1.579 10.88 4.437 16.128 16.896 11.648 27.819-24.704 60.544-37.248 120.064-37.248 176.853 0 169.557 94.379 252.672 187.904 259.797 91.221 7.168 193.579-56.064 217.685-212.565 1.579-10.368 10.539-18.048 21.077-18.048s19.499 7.68 21.077 18.091c24.448 158.677 130.048 222.208 223.616 215.253 90.581-6.955 181.973-82.987 181.973-237.312 0-61.781-17.152-129.408-51.072-201.003-5.035-10.667-0.512-23.381 10.155-28.416 10.624-4.992 23.339-0.512 28.416 10.155 36.565 77.355 55.168 151.168 55.168 219.264 0 180.651-114.731 271.701-221.355 279.808-92.117 6.912-199.168-44.715-247.979-170.752-48.043 123.989-152.917 175.147-242.005 168.064-113.152-8.619-227.328-105.472-227.328-302.336 0-62.336 13.611-127.275 40.448-192.939 3.371-8.32 11.349-13.312 19.755-13.312zM500.224-77.226c3.584-2.389 7.723-3.541 11.776-3.541 4.608 0 9.259 1.493 13.056 4.437 6.656 5.12 164.053 127.829 293.077 298.112 7.125 9.387 5.291 22.741-4.139 29.867-9.344 7.083-22.699 5.333-29.867-4.139-105.344-138.965-233.6-248.149-273.024-280.363-42.752 30.251-184.363 136.149-292.181 280.277-7.125 9.472-20.48 11.349-29.867 4.309-9.429-7.083-11.349-20.437-4.309-29.867 132.395-176.853 308.053-294.144 315.477-299.093z" />
<glyph unicode="&#xf023;" glyph-name="medical-bed" d="M917.333 554.667h-29.44l-36.779 73.557c-3.669 7.211-11.051 11.776-19.115 11.776h-341.333c-8.064 0-15.445-4.565-19.072-11.776l-36.779-73.557h-105.387c7.381 12.587 11.904 27.051 11.904 42.667 0 47.104-38.272 85.333-85.333 85.333h-128c-47.061 0-85.333-38.229-85.333-85.333 0-20.096 7.296-38.357 18.944-52.992-36.267-17.067-61.611-53.675-61.611-96.341 0-58.795 47.829-106.667 106.667-106.667h72.277l295.765-144.725-284.16-139.008c-15.616 16.939-37.76 27.733-62.549 27.733-47.061 0-85.333-38.229-85.333-85.333 0-47.061 38.272-85.333 85.333-85.333s85.333 38.272 85.333 85.333h597.333c0-47.061 38.272-85.333 85.333-85.333s85.333 38.272 85.333 85.333c0 47.104-38.272 85.333-85.333 85.333-20.949 0-39.936-7.893-54.784-20.48l-269.355 131.755 295.765 144.725h49.707c58.837 0 106.667 47.872 106.667 106.667s-47.829 106.667-106.667 106.667zM503.851 597.334h315.008l21.333-42.667h-357.675l21.333 42.667zM128 640h128c23.552 0 42.667-19.157 42.667-42.667s-19.115-42.667-42.667-42.667h-128c-23.552 0-42.667 19.157-42.667 42.667s19.115 42.667 42.667 42.667zM128-42.666c-23.552 0-42.667 19.157-42.667 42.667s19.115 42.667 42.667 42.667 42.667-19.157 42.667-42.667c0-23.509-19.115-42.667-42.667-42.667zM896 42.667c23.552 0 42.667-19.157 42.667-42.667s-19.115-42.667-42.667-42.667-42.667 19.157-42.667 42.667c0 23.509 19.115 42.667 42.667 42.667zM789.461 42.667h-532.437l266.197 130.219 266.24-130.219zM523.307 220.416l-247.211 120.917h494.421l-247.211-120.917zM917.333 384h-810.667c-35.285 0-64 28.715-64 64s28.715 64 64 64h810.667c35.285 0 64-28.715 64-64s-28.715-64-64-64z" />
<glyph unicode="&#xf024;" glyph-name="first-aid" d="M704 426.667h-106.667v106.667c0 11.776-9.557 21.333-21.333 21.333h-128c-11.776 0-21.333-9.557-21.333-21.333v-106.667h-106.667c-11.776 0-21.333-9.557-21.333-21.333v-128c0-11.776 9.557-21.333 21.333-21.333h106.667v-106.667c0-11.776 9.557-21.333 21.333-21.333h128c11.776 0 21.333 9.557 21.333 21.333v106.667h106.667c11.776 0 21.333 9.557 21.333 21.333v128c0 11.776-9.557 21.333-21.333 21.333zM682.667 298.667h-106.667c-11.776 0-21.333-9.557-21.333-21.333v-106.667h-85.333v106.667c0 11.776-9.557 21.333-21.333 21.333h-106.667v85.333h106.667c11.776 0 21.333 9.557 21.333 21.333v106.667h85.333v-106.667c0-11.776 9.557-21.333 21.333-21.333h106.667v-85.333zM917.333 725.334h-234.667v42.667c0 47.104-38.272 85.333-85.333 85.333h-170.667c-47.061 0-85.333-38.229-85.333-85.333v-42.667h-234.667c-58.837 0-106.667-47.872-106.667-106.667v-512c0-58.795 47.829-106.667 106.667-106.667h810.667c58.837 0 106.667 47.872 106.667 106.667v512c0 58.795-47.829 106.667-106.667 106.667zM384 768c0 23.509 19.115 42.667 42.667 42.667h170.667c23.552 0 42.667-19.157 42.667-42.667v-42.667h-256v42.667zM981.333 106.667c0-35.285-28.715-64-64-64h-810.667c-35.285 0-64 28.715-64 64v512c0 35.285 28.715 64 64 64h810.667c35.285 0 64-28.715 64-64v-512z" />
<glyph unicode="&#xf025;" glyph-name="hand-grip" d="M974.421 67.115l-134.443 418.944c-8.32 26.027-37.547 41.216-63.744 32.768l-8.064-2.56-64.171 212.181c-1.749 116.139-96.811 210.091-213.333 210.091s-211.541-93.952-213.333-210.091l-64.171-212.181-8.107 2.56c-26.155 8.448-55.424-6.699-63.744-32.768l-134.443-418.901c-6.528-20.352-4.736-41.984 5.035-61.056 9.771-18.987 26.325-33.024 46.677-39.637l83.797-26.837c7.979-2.603 16.171-3.883 24.491-3.883 34.859 0 65.451 22.315 76.16 55.595l134.443 418.901c4.139 12.928 3.029 26.667-3.2 38.699s-16.725 20.907-29.568 25.003l-2.731 0.939 26.325 75.52c73.301-51.499 171.392-51.499 244.693 0l26.325-75.477-2.645-0.896c-12.885-4.139-23.381-13.013-29.611-25.045s-7.339-25.771-3.2-38.656l134.443-418.987c10.667-33.195 41.301-55.552 76.16-55.552 8.277 0 16.512 1.28 24.491 3.84l83.797 26.923c20.352 6.528 36.907 20.565 46.677 39.595 9.728 19.029 11.52 40.704 4.992 60.971zM336.853 423.339l-134.443-418.901c-6.187-19.2-27.52-30.421-46.976-24.107l-83.755 26.837c-9.515 3.072-17.237 9.643-21.803 18.517s-5.376 18.987-2.347 28.501l134.485 418.944c1.109 3.456 4.053 5.205 8.576 5.205 0.469 0 0.939-0.043 1.451-0.043l139.691-44.885c2.688-0.896 4.053-2.816 4.608-3.925s1.365-3.413 0.512-6.144zM643.243 593.195c-2.389 6.869-8.064 12.032-15.104 13.739-7.125 1.621-14.507-0.341-19.712-5.291-66.133-62.933-169.557-62.891-235.52 0-5.248 5.035-12.715 6.955-19.712 5.333-7.083-1.707-12.757-6.869-15.147-13.739l-36.693-105.301-47.616 15.275 65.323 215.851c0.597 1.963 0.939 4.053 0.939 6.144 0 94.123 76.587 170.667 170.709 170.667s170.667-76.544 170.667-170.667c0-2.091 0.299-4.181 0.896-6.187l65.28-215.851-47.659-15.275-36.651 105.301zM931.456 25.643c-4.565-8.875-12.331-15.403-21.803-18.475l-83.797-26.923c-19.456-6.101-40.789 4.949-46.976 24.107l-134.443 418.987c-0.896 2.688-0.043 4.992 0.512 6.101s1.92 3.029 4.651 3.968l142.123 45.227c2.901 0 6.357-1.707 7.595-5.547l134.443-418.987c3.115-9.472 2.261-19.584-2.304-28.459zM490.667 831.872c-58.795 0-106.667-47.829-106.667-106.667s47.872-106.667 106.667-106.667 106.667 47.829 106.667 106.667-47.872 106.667-106.667 106.667zM490.667 661.206c-35.285 0-64 28.715-64 64s28.715 64 64 64 64-28.715 64-64-28.715-64-64-64z" />
<glyph unicode="&#xf026;" glyph-name="medical-document" d="M889.728 676.438l-255.915 255.957c-1.963 1.92-4.309 3.499-6.912 4.565-2.603 1.109-5.419 1.707-8.235 1.707h-469.333c-11.776 0-21.333-9.557-21.333-21.333v-981.333c0-11.776 9.557-21.333 21.333-21.333h725.333c11.776 0 21.333 9.557 21.333 21.333v725.333c0 2.816-0.597 5.632-1.664 8.192-1.067 2.603-2.688 4.949-4.608 6.912zM640 865.835l183.168-183.168h-183.168v183.168zM170.667-42.666v938.667h426.667v-234.667c0-11.776 9.557-21.333 21.333-21.333h234.667v-682.667h-682.667zM746.667 170.667h-469.333c-11.776 0-21.333-9.557-21.333-21.333s9.557-21.333 21.333-21.333h469.333c11.776 0 21.333 9.557 21.333 21.333s-9.557 21.333-21.333 21.333zM746.667 85.334h-469.333c-11.776 0-21.333-9.557-21.333-21.333s9.557-21.333 21.333-21.333h469.333c11.776 0 21.333 9.557 21.333 21.333s-9.557 21.333-21.333 21.333zM362.667 341.334h64v-64c0-11.776 9.557-21.333 21.333-21.333h128c11.776 0 21.333 9.557 21.333 21.333v64h64c11.776 0 21.333 9.557 21.333 21.333v128c0 11.776-9.557 21.333-21.333 21.333h-64v64c0 11.776-9.557 21.333-21.333 21.333h-128c-11.776 0-21.333-9.557-21.333-21.333v-64h-64c-11.776 0-21.333-9.557-21.333-21.333v-128c0-11.776 9.557-21.333 21.333-21.333zM384 469.334h64c11.776 0 21.333 9.557 21.333 21.333v64h85.333v-64c0-11.776 9.557-21.333 21.333-21.333h64v-85.333h-64c-11.776 0-21.333-9.557-21.333-21.333v-64h-85.333v64c0 11.776-9.557 21.333-21.333 21.333h-64v85.333z" />
<glyph unicode="&#xf027;" glyph-name="dumbbell-1" d="M1002.667 234.539h-21.333v85.333c0 35.285-28.715 64-64 64h-64v64c0 35.285-28.715 64-64 64h-128c-35.285 0-64-28.715-64-64v-234.667h-170.667v234.667c0 35.285-28.715 64-64 64h-128c-35.285 0-64-28.715-64-64v-64h-64c-35.285 0-64-28.715-64-64v-85.333h-21.333c-11.776 0-21.333-9.557-21.333-21.333s9.557-21.333 21.333-21.333h21.333v-85.333c0-35.285 28.715-64 64-64h64v-64c0-35.285 28.715-64 64-64h128c35.285 0 64 28.715 64 64v192h170.667v-192c0-35.285 28.715-64 64-64h128c35.285 0 64 28.715 64 64v64h64c35.285 0 64 28.715 64 64v85.333h21.333c11.776 0 21.333 9.557 21.333 21.333s-9.557 21.333-21.333 21.333zM106.667 85.206c-11.776 0-21.333 9.6-21.333 21.333v213.333c0 11.733 9.557 21.333 21.333 21.333h64v-256h-64zM384-21.461c0-11.733-9.557-21.333-21.333-21.333h-128c-11.776 0-21.333 9.6-21.333 21.333v469.333c0 11.733 9.557 21.333 21.333 21.333h128c11.776 0 21.333-9.6 21.333-21.333v-469.333zM810.667-21.461c0-11.733-9.557-21.333-21.333-21.333h-128c-11.776 0-21.333 9.6-21.333 21.333v469.333c0 11.733 9.557 21.333 21.333 21.333h128c11.776 0 21.333-9.6 21.333-21.333v-469.333zM938.667 106.539c0-11.733-9.557-21.333-21.333-21.333h-64v256h64c11.776 0 21.333-9.6 21.333-21.333v-213.333z" />
<glyph unicode="&#xf028;" glyph-name="muscle" d="M774.571 468.95c-90.453 3.115-192.128-47.232-222.592-166.357-23.339 18.688-55.125 31.403-92.459 36.565-48.512 6.699-108.885 0.299-155.733-25.259l14.379 136.661 117.035 17.664c7.851 1.152 14.379 6.613 16.981 14.123l37.333 107.861c1.237 3.584 1.493 7.424 0.768 11.136l-21.333 106.667c-2.005 9.984-10.752 17.152-20.907 17.152h-213.333c-4.736 0-9.387-1.579-13.141-4.48-3.072-2.347-75.051-59.093-94.336-129.323-45.483-165.931-96.171-364.288-84.565-421.376 0-66.645 58.539-128.043 164.864-172.971 94.549-39.936 217.003-62.805 336.043-62.805 214.229 0 443.093 78.635 443.093 299.435 0 155.477-109.952 230.997-212.096 235.307zM543.531-23.082c-113.536 0-229.973 21.675-319.445 59.477-88.192 37.248-138.752 85.931-139.179 137.685-11.605 59.264 59.947 320.256 83.499 406.059 12.757 46.592 58.197 88.832 73.941 102.4h188.16l16.768-83.84-31.189-90.197-72.96-11.008 58.581 87.893c6.528 9.771 3.883 23.040-5.931 29.568l-64 42.667c-9.173 6.144-21.547 4.224-28.459-4.395l-85.333-106.667c-7.339-9.216-5.845-22.613 3.328-29.995 9.259-7.339 22.613-5.845 29.995 3.328l73.088 91.435 29.995-20.011-73.429-110.165c-2.005-2.944-3.285-6.443-3.584-10.112l-21.291-202.24c-0.981-9.259 4.139-18.048 12.629-21.803 8.533-3.755 18.475-1.536 24.576 5.461 30.251 34.389 97.792 53.035 160.341 44.459 45.611-6.272 79.275-25.6 92.416-52.907 4.139-8.661 13.696-13.355 23.083-11.776 9.472 1.749 16.597 9.6 17.408 19.2 10.667 125.184 104.021 179.755 186.197 174.933 85.248-3.627 171.221-64.597 171.221-192.683 0.043-238.251-306.475-256.768-400.427-256.768zM822.443 189.739l-54.443-27.221v93.483h21.333c11.776 0 21.333 9.557 21.333 21.333s-9.557 21.333-21.333 21.333h-21.333v42.667c0 11.776-9.557 21.333-21.333 21.333s-21.333-9.557-21.333-21.333v-42.667h-21.333c-11.776 0-21.333-9.557-21.333-21.333s9.557-21.333 21.333-21.333h21.333v-93.483l-54.443 27.264c-10.539 5.291-23.339 0.939-28.629-9.557-5.291-10.539-0.981-23.339 9.557-28.629l85.333-42.667c0.171-0.085 0.384-0.043 0.597-0.128 2.731-1.28 5.717-2.133 8.96-2.133s6.229 0.853 8.96 2.133c0.171 0.085 0.384 0.043 0.597 0.128l85.333 42.667c10.539 5.291 14.805 18.091 9.557 28.629-5.333 10.496-18.176 14.805-28.715 9.515z" />
<glyph unicode="&#xf029;" glyph-name="cycling" d="M849.536 263.51c-19.456 0-37.845-3.925-55.296-9.813l-41.856 155.093 88.832-10.325c9.259-1.323 15.744-9.941 14.421-19.157-1.323-9.301-9.643-16-19.2-14.379-11.861 1.451-22.485-6.4-24.149-18.048-1.707-11.648 6.357-22.485 18.048-24.192 32.512-4.864 62.805 17.92 67.541 50.56 4.608 32.512-18.048 62.763-51.115 67.584l-120.704 14.037c-7.125 0.811-14.037-1.92-18.645-7.296-4.608-5.333-6.272-12.672-4.437-19.456l23.467-86.827h-282.709l-37.675 85.333h63.275c11.776 0 21.333 9.557 21.333 21.333s-9.557 21.333-21.333 21.333h-170.667c-11.776 0-21.333-9.557-21.333-21.333s9.557-21.333 21.333-21.333h60.757l45.44-102.869-55.509-77.312c-22.571 10.709-47.488 17.152-74.112 17.152-96.213 0-174.464-78.293-174.464-174.507s78.251-174.464 174.464-174.464c94.891 0 172.032 76.245 174.123 170.667h74.709c4.949 0 9.856 1.707 13.867 5.12 0.256 0.213 0.512 0.427 0.725 0.683l204.075 189.483 12.245-45.269c-48-31.104-79.957-84.907-79.957-146.261 0-96.213 78.251-174.464 174.464-174.464 96.171 0 174.464 78.251 174.464 174.464s-78.251 174.464-174.421 174.464zM275.243-42.794c-72.704 0-131.797 59.136-131.797 131.797 0 72.704 59.136 131.84 131.797 131.84 17.28 0 33.749-3.541 48.896-9.643l-66.219-92.203c-4.651-6.485-5.291-15.104-1.664-22.229s10.965-11.563 18.987-11.563h131.456c-2.133-70.869-60.075-128-131.456-128zM400.512 127.872h-83.712l43.648 60.843c18.688-15.957 32.597-36.821 40.064-60.843zM445.013 127.872c-8.789 38.229-30.336 71.296-59.691 95.36l39.552 55.125 66.475-150.485h-46.336zM531.499 142.55l-68.907 155.989h236.885l-167.979-155.989zM849.536-42.794c-72.704 0-131.797 59.136-131.797 131.797 0 41.301 19.456 77.739 49.237 101.931l25.685-95.104c1.835-6.869 6.997-12.373 13.739-14.677l36.267-12.331c2.304-0.768 4.608-1.109 6.869-1.109 8.875 0 17.195 5.589 20.181 14.464 3.797 11.179-2.176 23.296-13.312 27.093l-25.515 8.661-25.6 94.805c13.867 4.949 28.629 8.149 44.245 8.149 72.661 0 131.797-59.136 131.797-131.84s-59.136-131.84-131.797-131.84zM277.333 789.206c-11.776 0-21.333-9.557-21.333-21.333v-192c0-11.776 9.557-21.333 21.333-21.333h149.333c11.776 0 21.333 9.557 21.333 21.333s-9.557 21.333-21.333 21.333h-128v170.667c0 11.776-9.557 21.333-21.333 21.333zM167.808 340.182c7.296 0 14.379 3.755 18.389 10.453 6.016 10.112 2.645 23.211-7.467 29.227-83.968 49.749-136.064 141.227-136.064 238.677 0 152.917 124.416 277.333 277.333 277.333 75.947 0 146.773-30.080 199.552-84.736 52.736-54.613 80.299-126.507 77.611-202.411-0.427-11.733 8.789-21.675 20.565-22.101 10.965-0.384 21.675 8.747 22.059 20.565 3.115 87.595-28.715 170.539-89.557 233.6s-142.635 97.749-230.229 97.749c-176.469 0-320-143.531-320-320 0-112.427 60.16-217.941 156.928-275.371 3.413-2.048 7.168-2.987 10.88-2.987z" />
<glyph unicode="&#xf030;" glyph-name="pill" d="M298.325-85.333c80 0 155.008 30.933 211.157 87.125l392.192 392.192c56.192 56.149 87.168 131.2 87.168 211.157 0 80-30.976 155.008-87.168 211.2s-131.2 87.125-211.2 87.125-155.008-30.933-211.157-87.125l-392.149-392.192c-56.192-56.192-87.168-131.2-87.168-211.2s30.976-155.008 87.125-211.157c56.192-56.192 131.2-87.125 211.2-87.125zM509.483 786.219c48.128 48.128 112.427 74.624 180.992 74.624 68.608 0 132.907-26.496 181.035-74.624s74.667-112.427 74.667-181.035c0-68.565-26.539-132.864-74.667-180.992l-180.992-181.035-362.027 362.027 180.992 181.035zM117.333 393.984l180.992 180.992 362.027-362.027-181.035-180.992c-48.128-48.128-112.384-74.624-180.992-74.624s-132.907 26.496-181.035 74.624-74.624 112.427-74.624 180.992c0 68.608 26.539 132.907 74.667 181.035zM449.195 605.227c4.181-4.181 9.643-6.229 15.104-6.229s10.923 2.091 15.104 6.229l90.453 90.539c58.24 58.197 153.045 58.197 211.2 0 8.32-8.32 21.845-8.32 30.165 0s8.32 21.845 0 30.165c-74.837 74.837-196.608 74.837-271.531 0l-90.453-90.539c-8.363-8.363-8.363-21.888-0.043-30.165z" />
<glyph unicode="&#xf031;" glyph-name="tennis" d="M873.6 388.95c-2.688 11.477-14.165 18.603-25.728 15.787-11.477-2.731-18.517-14.251-15.787-25.728l100.864-421.675h-126.208l-84.224 430.763c-2.261 11.605-13.483 19.285-25.003 16.853-11.563-2.261-19.115-13.44-16.853-25.003l24.235-123.947h-428.672l24.277 123.947c2.261 11.563-5.291 22.741-16.853 25.003-11.691 2.603-22.784-5.248-25.045-16.853l-84.352-430.763h-126.037l100.907 421.76c2.731 11.477-4.352 22.955-15.787 25.728-11.435 2.731-22.955-4.352-25.728-15.787l-107.179-448.085c-1.536-6.315-0.043-13.056 4.011-18.176s10.197-8.107 16.725-8.107h938.837c6.528 0 12.715 2.987 16.768 8.107s5.504 11.819 4.011 18.176l-107.179 448zM763.264-42.666h-251.264v256h201.216l50.048-256zM267.861 213.334h201.472v-256h-251.563l50.091 256zM199.979 683.264c11.563-2.987 22.955 4.309 25.728 15.787l47.147 196.949h85.248l-36.821-187.904c-2.261-11.563 5.248-22.784 16.811-25.003 1.408-0.299 2.773-0.427 4.139-0.427 9.984 0 18.901 7.040 20.907 17.237l13.355 68.096h228.309l13.355-68.309c2.005-10.197 10.923-17.237 20.907-17.237 1.365 0 2.731 0.128 4.096 0.427 11.563 2.261 19.115 13.44 16.853 25.003l-36.779 188.117h85.248l47.147-197.163c2.347-9.771 11.093-16.384 20.736-16.384 1.664 0 3.328 0.171 4.992 0.597 11.477 2.731 18.517 14.251 15.787 25.728l-51.072 213.547c-2.261 9.557-10.88 16.341-20.736 16.341h-469.333c-9.856 0-18.475-6.741-20.736-16.384l-51.072-213.333c-2.773-11.435 4.309-22.955 15.787-25.685zM401.579 896h67.755v-85.333h-84.48l16.725 85.333zM596.437 810.667h-84.437v85.333h67.755l16.683-85.333zM1002.667 640h-981.504c-11.776 0-21.333-9.557-21.333-21.333v-192c0-11.776 9.557-21.333 21.333-21.333s21.333 9.557 21.333 21.333v42.667h938.837v-42.667c0-11.776 9.557-21.333 21.333-21.333s21.333 9.557 21.333 21.333v192c0 11.776-9.557 21.333-21.333 21.333zM42.496 512v85.333h938.837v-85.333h-938.837z" />
<glyph unicode="&#xf032;" glyph-name="medical-results" d="M661.333 853.334h-66.133c-9.899 48.64-53.035 85.333-104.533 85.333s-94.635-36.693-104.533-85.333h-66.133c-11.776 0-21.333-9.557-21.333-21.333v-21.333h-192c-11.776 0-21.333-9.557-21.333-21.333v-853.333c0-11.776 9.557-21.333 21.333-21.333h768c11.776 0 21.333 9.557 21.333 21.333v853.333c0 11.776-9.557 21.333-21.333 21.333h-192v21.333c0 11.776-9.557 21.333-21.333 21.333zM213.333 298.667h64c6.699 0 13.056 3.157 17.067 8.533l45.867 61.227 68.608-102.912c4.224-6.357 11.648-9.984 19.072-9.472 7.595 0.469 14.336 4.949 17.749 11.733l82.133 164.267 70.272-245.888c2.432-8.448 9.771-14.549 18.56-15.403 0.725-0.085 1.323-0.085 2.005-0.085 8.021 0 15.445 4.523 19.072 11.776l58.112 116.224h72.149v-213.333h-554.667v213.333zM768 341.334h-85.333c-8.064 0-15.445-4.565-19.072-11.776l-39.467-78.933-70.272 245.931c-2.432 8.448-9.771 14.592-18.56 15.403-8.875 0.896-17.109-3.84-21.035-11.691l-90.197-180.437-64.939 97.408c-3.84 5.76-10.24 9.301-17.152 9.515-6.443 0.256-13.483-2.944-17.664-8.533l-57.643-76.885h-53.333v341.333h85.333v-21.333c0-11.776 9.557-21.333 21.333-21.333h341.333c11.776 0 21.333 9.557 21.333 21.333v21.333h85.333v-341.333zM341.333 810.667h64c11.776 0 21.333 9.557 21.333 21.333 0 35.285 28.715 64 64 64s64-28.715 64-64c0-11.776 9.557-21.333 21.333-21.333h64v-128h-298.667v128zM853.333 768v-810.667h-725.333v810.667h170.667v-42.667h-106.667c-11.776 0-21.333-9.557-21.333-21.333v-640c0-11.776 9.557-21.333 21.333-21.333h597.333c11.776 0 21.333 9.557 21.333 21.333v640c0 11.776-9.557 21.333-21.333 21.333h-106.667v42.667h170.667z" />
<glyph unicode="&#xf033;" glyph-name="pulse" d="M917.333 938.667h-810.667c-58.837 0-106.667-47.872-106.667-106.667v-810.667c0-58.795 47.829-106.667 106.667-106.667h810.667c58.837 0 106.667 47.872 106.667 106.667v810.667c0 58.795-47.829 106.667-106.667 106.667zM42.667 512h149.333c7.125 0 13.781 3.541 17.749 9.515l67.584 101.419 67.584-101.376c4.309-6.443 11.648-10.24 19.541-9.429 7.765 0.683 14.549 5.504 17.707 12.587l62.464 140.501 111.061-351.616c2.773-8.917 11.093-14.933 20.352-14.933 0.341 0 0.725 0 1.067 0 9.685 0.512 17.835 7.467 19.797 16.939l89.045 427.307 61.568-215.509c2.56-9.088 10.923-15.403 20.48-15.403h213.333v-341.333h-85.333c-5.675 0-11.093-2.261-15.104-6.229l-27.563-27.605-70.229 70.272c-8.021 8.021-22.187 8.021-30.165 0l-36.437-36.437h-119.168c-5.675 0-11.093-2.261-15.104-6.229l-27.563-27.605-70.229 70.272c-8.021 8.021-22.187 8.021-30.165 0l-36.437-36.437h-119.168c-5.675 0-11.093-2.261-15.104-6.229l-27.563-27.605-70.229 70.272c-8.021 8.021-22.187 8.021-30.165 0l-36.437-36.437h-76.501v341.333zM106.667 896h810.667c35.285 0 64-28.715 64-64v-277.333h-197.248l-80.939 283.221c-2.645 9.429-10.453 16.299-21.291 15.445-9.771-0.341-18.091-7.339-20.096-16.896l-90.027-432.128-103.424 327.509c-2.645 8.448-10.283 14.379-19.115 14.848-9.771 0.341-17.067-4.48-20.693-12.587l-69.589-156.587-63.829 95.701c-7.936 11.861-27.563 11.861-35.499 0l-79.019-118.528h-137.899v277.333c0 35.285 28.715 64 64 64zM917.333-42.666h-810.667c-35.285 0-64 28.715-64 64v106.667h85.333c5.675 0 11.093 2.261 15.104 6.229l27.563 27.605 70.229-70.272c4.011-3.968 9.429-6.229 15.104-6.229s11.093 2.261 15.104 6.229l36.395 36.437h119.168c5.675 0 11.093 2.261 15.104 6.229l27.563 27.605 70.229-70.272c4.011-3.968 9.429-6.229 15.104-6.229s11.093 2.261 15.104 6.229l36.395 36.437h119.168c5.675 0 11.093 2.261 15.104 6.229l27.563 27.605 70.229-70.272c4.011-3.968 9.429-6.229 15.104-6.229s11.093 2.261 15.104 6.229l36.395 36.437h76.501v-106.667c0-35.285-28.715-64-64-64z" />
<glyph unicode="&#xf034;" glyph-name="protein" d="M768 723.030v151.509c0 35.285-28.715 64-64 64h-426.667c-35.285 0-64-28.715-64-64v-151.509c-95.744-10.752-170.667-91.221-170.667-189.824v-426.667c0-105.856 86.144-192 192-192h512c105.856 0 192 86.144 192 192v426.667c0 98.603-74.965 179.072-170.667 189.824zM725.333 874.539v-149.333h-42.667v170.667h21.333c11.733 0 21.333-9.6 21.333-21.333zM341.333 725.206v170.667h42.667v-170.667h-42.667zM426.667 895.872h42.667v-170.667h-42.667v170.667zM512 895.872h42.667v-170.667h-42.667v170.667zM597.333 895.872h42.667v-170.667h-42.667v170.667zM256 874.539c0 11.733 9.557 21.333 21.333 21.333h21.333v-170.667h-42.667v149.333zM234.667 682.539h512c75.008 0 136.704-55.851 147.2-128h-806.4c10.453 72.149 72.149 128 147.2 128zM85.333 127.872v384h810.667v-384h-810.667zM746.667-42.794h-512c-75.008 0-136.704 55.851-147.2 128h806.357c-10.453-72.149-72.149-128-147.157-128zM746.667 426.539h-64v21.333c0 11.776-9.557 21.333-21.333 21.333h-85.333c-11.776 0-21.333-9.557-21.333-21.333v-106.667h-128v106.667c0 11.776-9.557 21.333-21.333 21.333h-85.333c-11.776 0-21.333-9.557-21.333-21.333v-21.333h-64c-11.776 0-21.333-9.557-21.333-21.333v-170.667c0-11.776 9.557-21.333 21.333-21.333h64v-21.333c0-11.776 9.557-21.333 21.333-21.333h85.333c11.776 0 21.333 9.557 21.333 21.333v106.667h128v-106.667c0-11.776 9.557-21.333 21.333-21.333h85.333c11.776 0 21.333 9.557 21.333 21.333v21.333h64c11.776 0 21.333 9.557 21.333 21.333v170.667c0 11.776-9.557 21.333-21.333 21.333zM256 255.872v128h42.667v-128h-42.667zM384 213.206h-42.667v213.333h42.667v-213.333zM640 213.206h-42.667v213.333h42.667v-213.333zM725.333 255.872h-42.667v128h42.667v-128z" />
<glyph unicode="&#xf035;" glyph-name="dumbbell-2" d="M990.421 754.091l-150.869 150.869c-32.256 32.256-88.405 32.256-120.619 0-10.795-10.795-18.005-24.107-21.845-38.443l-8.363 8.32c-32.299 32.171-88.363 32.213-120.704-0.043-11.008-11.051-18.005-24.448-21.717-38.528l-8.405 8.363c-32.213 32.256-88.405 32.256-120.747 0-33.237-33.28-33.237-87.467 0-120.704l135.765-135.765-211.115-211.2-135.765 135.808c-32.213 32.128-88.448 32.171-120.704-0.043-33.237-33.237-33.237-87.424 0-120.661l8.875-8.875c-14.464-3.541-28.16-10.411-39.040-21.291-33.237-33.237-33.237-87.381 0-120.661l8.832-8.917c-14.464-3.541-28.16-10.411-39.040-21.291-16.085-16.128-24.96-37.547-24.96-60.331 0-22.827 8.875-44.245 25.003-60.331l150.869-150.869c16.085-16.085 37.461-24.96 60.288-24.96s44.288 8.875 60.459 25.003c11.008 11.051 18.005 24.448 21.717 38.528l8.405-8.363c16.128-16.128 37.547-25.045 60.373-25.045 22.784 0 44.203 8.875 60.288 25.003 10.795 10.795 18.005 24.064 21.845 38.485l8.363-8.363c16.128-16.085 37.547-24.917 60.373-24.917s44.245 8.875 60.373 25.003 25.003 37.547 25.003 60.331c0 22.784-8.917 44.245-25.045 60.331l-135.765 135.765 211.115 211.2 135.808-135.808c16.128-16.128 37.547-25.003 60.373-25.003s44.245 8.875 60.288 25.003c16.128 16.128 25.045 37.547 25.045 60.331s-8.875 44.203-25.003 60.331l-8.32 8.32c14.379 3.797 27.691 11.051 38.485 21.845 16.128 16.128 25.003 37.547 25.003 60.331 0 22.827-8.875 44.245-25.003 60.373l-8.448 8.363c14.421 3.84 27.733 11.051 38.571 21.845 33.237 33.237 33.237 87.424-0.043 120.661zM266.411-30.293c-16.213-16.043-44.288-16.128-60.416-0.043l-150.912 150.869c-7.979 8.064-12.416 18.773-12.416 30.165s4.437 22.101 12.459 30.165c8.064 8.064 18.816 12.501 30.208 12.501s22.101-4.437 30.123-12.501l150.912-150.869c16.64-16.64 16.64-43.648 0.043-60.288zM429.696 30.038c0-11.435-4.437-22.144-12.501-30.208-16.085-16.128-44.203-16.085-60.288 0.043l-271.573 271.488c-16.64 16.64-16.64 43.691 0 60.331 8.064 8.021 18.773 12.501 30.208 12.501s22.101-4.437 30.123-12.501l271.701-271.659c7.893-8.064 12.331-18.688 12.331-29.995zM580.608 60.203c0-11.392-4.437-22.101-12.501-30.165-16.128-16.171-44.288-16.128-60.416-0.043l-392.192 392.192c-16.64 16.64-16.597 43.691 0 60.331 8.107 8.021 18.816 12.501 30.251 12.501 11.392 0 22.101-4.437 30.165-12.459l392.235-392.192c7.979-8.064 12.459-18.773 12.459-30.165zM432.299 286.464l-60.331 60.331 211.115 211.2 60.331-60.331-211.115-211.2zM899.883 361.814c-16.043-16.128-44.203-16-60.331 0.043l-392.192 392.192c-16.64 16.64-16.64 43.691 0 60.373 8.064 8.021 18.816 12.501 30.208 12.501 11.435 0 22.101-4.437 30.165-12.501l331.819-331.904c0-0.043 0.043-0.043 0.043-0.043l60.288-60.288c8.064-8.064 12.501-18.773 12.501-30.165s-4.395-22.059-12.501-30.208zM930.048 512.726c-16.085-16.171-44.117-16.085-60.288-0.043l-271.488 271.616c-16.64 16.64-16.64 43.691-0.043 60.331 8.064 8.021 18.773 12.501 30.208 12.501s22.144-4.437 30.208-12.501l271.445-271.531c8.064-8.064 12.501-18.773 12.501-30.208-0.043-11.392-4.48-22.101-12.544-30.165zM960.256 663.595c-16.043-16.085-44.16-16.085-60.331-0.043l-150.869 150.912c-8.064 8.064-12.501 18.773-12.501 30.165s4.437 22.101 12.501 30.165c8.064 8.021 18.731 12.501 30.123 12.501s22.101-4.437 30.165-12.501l150.869-150.869c16.683-16.64 16.683-43.733 0.043-60.331z" />
<glyph unicode="&#xf036;" glyph-name="martial-art" d="M1017.728 633.643l-234.624 234.667c-1.621 1.621-3.499 2.944-5.547 4.011l-128.085 64c-0.213 0.128-0.427 0.085-0.64 0.171-0.341 0.171-0.683 0.384-1.067 0.512-0.128 0.043-0.256 0.213-0.384 0.256-0.939 0.384-1.963 0.256-2.944 0.469-1.323 0.299-2.603 0.768-3.925 0.768-0.213 0-0.384 0.128-0.597 0.128h-256c-0.171 0-0.341-0.128-0.512-0.128-3.029-0.085-6.144-0.683-9.003-2.133l-0.341-0.256-127.573-63.829c-2.048-1.024-3.925-2.347-5.547-3.968l-234.667-234.667c-8.32-8.32-8.32-21.845 0-30.165l127.957-128c7.808-7.893 20.267-8.405 28.757-1.28l98.944 82.475 36.395-236.501-66.944-380.544c-0.085-0.597 0.128-1.109 0.085-1.664-0.171-1.792-0.043-3.499 0.213-5.205 0.171-1.152 0.256-2.261 0.64-3.371 0.597-1.835 1.579-3.456 2.645-5.077 0.427-0.683 0.555-1.451 1.067-2.091 0.128-0.171 0.341-0.256 0.512-0.384 1.365-1.536 3.072-2.645 4.864-3.755 0.811-0.512 1.451-1.195 2.304-1.579 0.085-0.043 0.128-0.128 0.256-0.171 2.731-1.195 5.589-1.749 8.448-1.749h515.541c6.272 0 12.245 2.731 16.256 7.552 4.053 4.779 5.803 11.136 4.779 17.28l-63.445 380.587 36.437 236.672 99.029-82.517c8.448-7.083 20.907-6.571 28.715 1.28l128 128c8.32 8.363 8.32 21.845 0 30.208zM609.237 895.872l-96.896-260.309-97.621 260.309h194.517zM284.8 617.174c-7.211 2.731-15.317 1.323-21.205-3.584l-112.981-94.165-99.072 99.115 217.131 217.131 103.637 51.84 117.333-312.96-86.827-233.344h-64.555l-39.893 259.243c-1.195 7.595-6.357 13.995-13.568 16.725zM337.835 298.539h47.36l-80.085-186.155 32.725 186.155zM742.741-42.794h-457.941l146.816 341.333h50.688l-54.613-163.925c-3.712-11.179 2.304-23.253 13.483-27.008 11.221-3.755 23.253 2.389 26.965 13.483l43.776 131.285 43.776-131.285c2.987-8.917 11.307-14.592 20.224-14.592 2.219 0 4.48 0.341 6.741 1.067 11.179 3.755 17.195 15.829 13.483 27.008l-54.613 163.925h144.341l56.875-341.291zM873.344 519.424l-113.067 94.165c-5.931 4.907-14.037 6.272-21.205 3.584-7.211-2.688-12.373-9.131-13.525-16.725l-39.893-259.243h-237.312l203.349 546.304 103.723-51.84 217.088-217.131-99.157-99.115z" />
<glyph unicode="&#xf037;" glyph-name="squash" d="M941.525 840.832c-51.2 51.2-121.771 79.403-198.699 79.403-91.691 0-184.235-39.936-253.867-109.525-86.869-86.869-122.411-203.477-104.533-306.389l-0.597 0.043c-11.819-113.28-42.411-217.557-49.451-240.469l-116.949-116.992-12.075 12.075c-3.968 4.011-9.387 6.272-15.061 6.272s-11.093-2.261-15.104-6.229l-135.765-135.808c-24.96-24.96-24.96-65.536-0.043-90.453 12.032-12.075 28.117-18.731 45.312-18.731s33.28 6.656 45.269 18.688l135.765 135.765c8.32 8.32 8.32 21.845 0 30.165l-18.091 18.133 116.949 116.992c22.955 6.997 127.403 37.632 241.28 49.493 16.811-2.859 34.005-4.523 51.584-4.523 91.733 0 184.235 39.979 253.909 109.611 133.077 133.077 146.603 336.085 30.165 452.48zM99.797-37.162c-7.936-8.021-22.187-8.021-30.165 0.043-8.32 8.32-8.32 21.845 0 30.165l120.704 120.704 30.208-30.208-120.747-120.704zM962.304 548.566l-50.816 50.816 65.493 65.579c3.243-38.059-1.707-77.696-14.677-116.395zM505.643 374.742l104.021 104.064 60.587-60.629-85.248-85.376c-29.397 8.832-56.107 22.912-79.36 41.941zM438.101 650.454l51.627-51.627-66.219-66.475c-3.541 38.571 1.408 78.848 14.592 118.101zM760.533 690.006l-60.331-60.331-59.947 59.904 60.203 60.501 60.075-60.075zM730.581 780.288l85.291 85.675c29.269-8.789 55.808-22.827 78.891-41.771l-104.021-104.021-60.16 60.117zM790.699 659.84l60.416-60.416-60.245-60.416-60.501 60.501 60.331 60.331zM670.037 599.51l-60.331-60.331-59.733 59.691 60.203 60.501 59.861-59.861zM610.091 719.744l-75.136 75.179c22.144 19.584 46.293 35.925 71.851 48.853l63.488-63.488-60.203-60.544zM580.011 689.536l-60.203-60.501-63.915 63.915c12.715 25.216 29.013 49.408 48.896 71.851l75.221-75.264zM519.893 568.662l59.648-59.648-104.704-104.747c-19.029 23.125-32.768 49.408-41.387 77.568l86.443 86.827zM639.872 509.014l60.373 60.331 60.501-60.501-60.288-60.416-60.587 60.587zM790.912 478.635l74.496-74.496c-22.144-19.627-46.293-35.968-71.851-48.896l-62.976 62.976 60.331 60.416zM821.035 508.843l60.288 60.373 63.147-63.104c-12.715-25.259-29.013-49.408-48.853-71.851l-74.581 74.581zM967.339 715.776l-86.059-86.229-60.416 60.416 104.704 104.661c19.328-23.381 33.152-50.133 41.771-78.848zM765.184 875.563l-64.768-65.067-51.243 51.243c30.549 10.283 62.208 15.872 93.696 15.872 7.637-0.043 14.848-1.451 22.315-2.048zM384.683 283.947c8.533 31.061 20.309 78.72 29.952 133.717 11.776-21.461 26.283-41.6 44.203-59.563 17.621-17.621 37.675-32.299 59.349-44.288-54.955-9.6-102.528-21.376-133.504-29.867zM635.904 323.328l64.555 64.683 50.731-50.731c-30.592-10.283-62.208-15.872-93.739-15.872-7.339-0.043-14.336 1.323-21.547 1.92zM186.667 640.64c70.571 0 128 57.429 128 128s-57.429 128-128 128-128-57.429-128-128 57.429-128 128-128zM186.667 853.974c47.061 0 85.333-38.272 85.333-85.333s-38.272-85.333-85.333-85.333-85.333 38.272-85.333 85.333 38.272 85.333 85.333 85.333z" />
<glyph unicode="&#xf038;" glyph-name="burns" d="M920.661 463.574c-2.091 6.869-7.509 12.203-14.379 14.251-6.912 2.048-14.336 0.469-19.84-4.181-29.525-25.003-62.251-45.013-97.451-59.563-4.053 118.016-45.056 228.523-119.083 320.683-84.437 105.813-204.843 175.829-338.859 197.248-8.107 1.365-16.341-2.219-20.992-9.045-4.693-6.827-4.992-15.744-0.768-22.869 31.573-53.632 49.408-112.725 52.992-175.573 0.384-6.827 0.384-13.696 0.384-20.523 0-55.509-11.861-110.208-34.603-159.957-25.003 34.645-43.733 72.832-55.851 113.92-2.048 6.912-7.381 12.288-14.293 14.379-6.784 2.133-14.336 0.597-19.84-4.053-97.067-81.152-152.747-200.363-152.747-326.955 0-7.68 0-15.317 0.469-22.912 12.032-226.389 199.253-403.755 426.197-403.755 235.264 0 426.667 191.36 426.667 426.667 0 41.728-6.059 82.816-18.005 122.24zM362.667 111.488c0 107.52 62.379 208.128 153.429 258.773-30.635-63.872-22.784-140.843 4.949-182.827 3.328-5.035 8.661-8.405 14.635-9.301 6.016-0.853 12.075 0.768 16.725 4.608 17.451 14.336 34.304 30.464 43.904 52.011 53.12-31.317 65.024-85.717 65.024-128.085 0-85.12-64.213-149.333-149.333-149.333-83.755 0-149.333 67.712-149.333 154.155zM665.301-10.581c24.107 32.085 38.699 72.107 38.699 117.248 0 86.059-40.277 149.333-113.493 178.176-6.229 2.389-13.141 1.877-18.816-1.579-5.675-3.413-9.472-9.301-10.197-15.872-1.365-12.331-6.869-22.528-15.616-32.469-14.251 45.995-9.984 122.752 49.493 166.571 8.107 6.016 10.965 16.896 6.699 26.069-4.224 9.173-14.037 14.208-24.149 11.904-147.029-33.835-257.92-174.848-257.92-327.979 0-47.659 16.427-90.283 42.923-123.989-131.669 55.467-226.517 182.144-234.539 333.269-0.384 6.869-0.384 13.696-0.384 20.565 0 103.296 41.173 201.131 113.963 272.896 17.195-44.928 41.941-86.315 73.813-123.392 4.48-5.333 11.435-8.107 18.261-7.339 6.912 0.64 13.099 4.693 16.512 10.709 35.84 63.403 54.784 135.979 54.784 209.792 0 7.68 0 15.317-0.469 22.955-3.072 54.187-15.701 105.856-37.675 154.155 106.197-26.539 200.661-86.955 269.397-173.013 72.021-89.557 110.037-197.973 110.037-313.429 0-3.072 0.043-5.76-0.299-8.832-0.811-7.211 2.133-14.293 7.765-18.859 5.589-4.608 13.269-5.973 20.011-3.755 40.747 13.141 78.848 32.341 113.579 57.301 5.547-25.856 8.32-52.395 8.32-79.189 0-157.269-95.104-292.523-230.699-351.915z" />
<glyph unicode="&#xf039;" glyph-name="config" d="M1017.771 868.438l-64 64c-7.339 7.296-18.859 8.32-27.264 2.432l-151.083-104.917c-5.205-3.584-8.491-9.344-9.088-15.616-0.555-6.272 1.707-12.501 6.187-16.981l40.021-39.936-425.429-425.429-75.435 75.435c-8.32 8.32-21.845 8.32-30.165 0s-8.32-21.845 0-30.165l30.123-30.165-265.301-265.387c-16.128-16.171-25.003-37.632-25.003-60.373 0-22.827 8.875-44.245 24.96-60.288 16.085-16.171 37.504-25.045 60.331-25.045s44.245 8.875 60.373 25.045l265.259 265.301 30.165-30.165c4.181-4.181 9.643-6.229 15.104-6.229s10.923 2.091 15.104 6.229c8.32 8.363 8.32 21.845 0 30.165l-75.392 75.392 425.472 425.472 35.413-35.413c4.011-4.011 9.472-6.229 15.104-6.229 0.512 0 0.981 0 1.536 0.043 6.187 0.427 11.819 3.541 15.531 8.491l109.44 146.475c6.357 8.491 5.504 20.309-1.963 27.861zM136.832-8.832c-16.128-16.128-44.203-16.256-60.331 0-8.064 8.064-12.501 18.773-12.501 30.165s4.437 22.101 12.501 30.165l265.259 265.344 60.331-60.331-265.259-265.344zM890.837 739.371l-70.144 70.059 115.499 80.213 38.272-38.315-83.627-111.957zM251.691 563.67l150.059-149.717 30.165 30.208-159.829 159.445c-6.187 6.144-15.36 7.936-23.424 4.523-56.661-24.021-121.003-11.776-163.84 31.061-35.029 35.072-49.835 84.053-41.173 131.157l63.019-60.416c3.968-3.84 9.259-5.931 14.763-5.931h91.904c11.776 0 21.333 9.557 21.333 21.333v88.149c0 5.504-2.133 10.795-5.973 14.763l-62.293 64.939c46.848 8.704 94.293-5.973 129.579-41.216 43.221-43.179 55.723-107.52 31.829-163.883-3.371-8.021-1.536-17.28 4.608-23.424l159.787-159.701 30.165 30.165-150.016 149.973c23.339 69.035 5.931 144.939-46.165 197.035-55.808 55.723-135.381 71.467-207.488 40.96-6.443-2.731-11.136-8.448-12.587-15.317s0.64-14.037 5.504-19.072l80.384-83.797v-58.24h-61.995l-81.92 78.549c-5.035 4.821-12.245 6.955-19.029 5.461-6.869-1.408-12.629-6.101-15.403-12.544-30.336-71.765-14.251-153.856 41.003-209.067 51.755-51.883 127.744-68.992 197.035-45.397zM763.008 294.443l-150.059 150.101-30.165-30.165 159.787-159.915c6.144-6.101 15.275-7.936 23.424-4.523 56.235 23.893 120.661 11.349 163.84-31.915 35.584-35.584 50.347-85.504 41.088-133.461l-67.029 61.867c-3.925 3.627-9.088 5.675-14.464 5.675h-85.333c-11.776 0-21.333-9.557-21.333-21.333v-85.333c0-5.547 2.133-10.837 5.973-14.805l62.677-64.981c-48.171-8.875-97.365 5.931-132.693 41.216-43.221 43.221-55.723 107.52-31.829 163.883 3.371 8.021 1.536 17.237-4.565 23.381l-159.872 159.915-30.165-30.165 150.144-150.187c-23.296-68.992-5.931-144.939 46.165-197.035 36.821-36.779 85.589-56.277 135.424-56.277 25.301 0 50.859 5.035 75.264 15.36 6.485 2.731 11.221 8.448 12.629 15.36 1.365 6.869-0.683 14.037-5.547 19.072l-80.853 83.84v55.381h55.68l85.803-79.189c5.077-4.736 12.075-6.571 18.944-5.205 6.784 1.451 12.459 6.144 15.147 12.544 30.635 72.405 14.549 155.093-41.003 210.603-52.139 52.224-127.957 69.717-197.077 46.293z" />
<glyph unicode="&#xf040;" glyph-name="youtube" d="M416.853 624.726c-6.571 4.267-14.891 4.437-21.76 0.768-6.827-3.797-11.093-11.008-11.093-18.731v-369.579c0-7.765 4.267-14.976 11.093-18.688 3.2-1.749 6.741-2.645 10.24-2.645 4.011 0 8.021 1.152 11.52 3.371l288.811 184.789c6.144 3.925 9.813 10.667 9.813 17.963s-3.712 14.037-9.813 17.963l-288.811 184.789zM426.667 276.139v291.669l227.883-145.835-227.883-145.835zM855.979 768h-687.957c-92.629 0-168.021-75.435-168.021-168.064v-389.163c0-92.672 75.392-168.107 168.021-168.107h688c92.587 0 167.979 75.435 167.979 168.064v389.205c0 92.629-75.392 168.064-168.021 168.064zM981.333 210.731c0-69.163-56.235-125.397-125.355-125.397h-687.957c-69.12 0-125.355 56.235-125.355 125.397v389.205c0 69.163 56.235 125.397 125.355 125.397h688c69.077 0 125.312-56.235 125.312-125.397v-389.205z" />
<glyph unicode="&#xf041;" glyph-name="calendar-tick" d="M752.427 462.55l-304.939-325.248-133.76 133.76c-8.32 8.32-21.845 8.32-30.165 0s-8.32-21.845 0-30.165l149.333-149.333c4.181-4.139 9.771-6.357 15.445-6.229 5.76 0.085 11.264 2.517 15.189 6.741l320 341.333c8.064 8.576 7.637 22.101-0.981 30.165-8.533 8.064-22.059 7.595-30.123-1.024zM1002.667 853.334h-149.333v64c0 11.776-9.557 21.333-21.333 21.333h-128c-11.776 0-21.333-9.557-21.333-21.333v-64h-341.333v64c0 11.776-9.557 21.333-21.333 21.333h-128c-11.776 0-21.333-9.557-21.333-21.333v-64h-149.333c-11.776 0-21.333-9.557-21.333-21.333v-896c0-11.776 9.557-21.333 21.333-21.333h981.333c11.776 0 21.333 9.557 21.333 21.333v896c0 11.776-9.557 21.333-21.333 21.333zM725.333 896h85.333v-128h-85.333v128zM213.333 896h85.333v-128h-85.333v128zM170.667 810.667v-64c0-11.776 9.557-21.333 21.333-21.333h128c11.776 0 21.333 9.557 21.333 21.333v64h341.333v-64c0-11.776 9.557-21.333 21.333-21.333h128c11.776 0 21.333 9.557 21.333 21.333v64h128v-170.667h-938.667v170.667h128zM42.667-42.666v640h938.667v-640h-938.667z" />
<glyph unicode="&#xf042;" glyph-name="calendar-plus" d="M1002.667 853.334h-149.333v64c0 11.776-9.557 21.333-21.333 21.333h-128c-11.776 0-21.333-9.557-21.333-21.333v-64h-341.333v64c0 11.776-9.557 21.333-21.333 21.333h-128c-11.776 0-21.333-9.557-21.333-21.333v-64h-149.333c-11.776 0-21.333-9.557-21.333-21.333v-896c0-11.776 9.557-21.333 21.333-21.333h981.333c11.776 0 21.333 9.557 21.333 21.333v896c0 11.776-9.557 21.333-21.333 21.333zM725.333 896h85.333v-128h-85.333v128zM213.333 896h85.333v-128h-85.333v128zM170.667 810.667v-64c0-11.776 9.557-21.333 21.333-21.333h128c11.776 0 21.333 9.557 21.333 21.333v64h341.333v-64c0-11.776 9.557-21.333 21.333-21.333h128c11.776 0 21.333 9.557 21.333 21.333v64h128v-170.667h-938.667v170.667h128zM42.667-42.666v640h938.667v-640h-938.667zM746.667 298.667h-192v192c0 11.776-9.557 21.333-21.333 21.333s-21.333-9.557-21.333-21.333v-192h-192c-11.776 0-21.333-9.557-21.333-21.333s9.557-21.333 21.333-21.333h192v-192c0-11.776 9.557-21.333 21.333-21.333s21.333 9.557 21.333 21.333v192h192c11.776 0 21.333 9.557 21.333 21.333s-9.557 21.333-21.333 21.333z" />
<glyph unicode="&#xf043;" glyph-name="calendar-info" d="M746.667 469.334c-152.917 0-277.333-124.416-277.333-277.333s124.416-277.333 277.333-277.333 277.333 124.416 277.333 277.333-124.416 277.333-277.333 277.333zM746.667-42.666c-129.408 0-234.667 105.259-234.667 234.667s105.259 234.667 234.667 234.667 234.667-105.259 234.667-234.667c0-129.408-105.259-234.667-234.667-234.667zM405.333 170.667h-362.667v426.667h810.667v-85.333c0-11.776 9.557-21.333 21.333-21.333s21.333 9.557 21.333 21.333v320c0 11.776-9.557 21.333-21.333 21.333h-149.333v64c0 11.776-9.557 21.333-21.333 21.333h-128c-11.776 0-21.333-9.557-21.333-21.333v-64h-213.333v64c0 11.776-9.557 21.333-21.333 21.333h-128c-11.776 0-21.333-9.557-21.333-21.333v-64h-149.333c-11.776 0-21.333-9.557-21.333-21.333v-682.667c0-11.776 9.557-21.333 21.333-21.333h384c11.776 0 21.333 9.557 21.333 21.333s-9.557 21.333-21.333 21.333zM597.333 896h85.333v-128h-85.333v128zM213.333 896h85.333v-128h-85.333v128zM170.667 810.667v-64c0-11.776 9.557-21.333 21.333-21.333h128c11.776 0 21.333 9.557 21.333 21.333v64h213.333v-64c0-11.776 9.557-21.333 21.333-21.333h128c11.776 0 21.333 9.557 21.333 21.333v64h128v-170.667h-810.667v170.667h128zM746.667 234.667c-11.776 0-21.333-9.557-21.333-21.333v-170.667c0-11.776 9.557-21.333 21.333-21.333s21.333 9.557 21.333 21.333v170.667c0 11.776-9.557 21.333-21.333 21.333zM746.667 341.334c-17.664 0-32-14.336-32-32s14.336-32 32-32 32 14.336 32 32c0 17.664-14.336 32-32 32zM736 309.334c0 5.888 4.779 10.667 10.667 10.667s10.667-4.779 10.667-10.667c0-11.733-21.333-11.733-21.333 0z" />
<glyph unicode="&#xf044;" glyph-name="spa" d="M490.667 42.667c-145.749 0-265.6 112.981-276.523 256h468.523c11.776 0 21.333 9.557 21.333 21.333s-9.557 21.333-21.333 21.333h-490.667c-11.776 0-21.333-9.557-21.333-21.333 0-176.469 143.531-320 320-320 11.776 0 21.333 9.557 21.333 21.333s-9.557 21.333-21.333 21.333zM490.667 384c105.856 0 192 86.144 192 192 0 149.205-107.989 286.549-251.221 319.445-9.771 2.347-19.968-2.688-24.192-11.904-4.224-9.173-1.408-20.096 6.741-26.027 57.131-42.027 61.653-115.627 48.256-160.299-8.064 9.344-13.099 18.987-14.421 30.549-0.768 6.571-4.523 12.459-10.197 15.872-5.717 3.413-12.715 4.011-18.816 1.536-76.373-30.251-120.149-91.904-120.149-169.173 0-105.856 86.144-192 192-192zM413.013 695.424c9.429-20.907 25.771-36.608 42.795-50.603 4.651-3.797 10.752-5.504 16.725-4.565 5.973 0.896 11.307 4.309 14.635 9.344 26.795 40.576 34.475 114.688 5.547 176.683 87.467-49.451 147.285-146.517 147.285-250.283 0-82.347-66.987-149.333-149.333-149.333s-149.333 66.987-149.333 149.333c0 52.139 25.259 93.824 71.68 119.424zM990.464 192.384c-21.333 35.115-69.12 50.389-111.232 36.267-2.091 18.432-8.875 36.053-19.925 50.731-34.816 46.592-105.771 46.763-140.757 0.597-11.179-14.805-18.091-32.469-20.267-50.987-41.941 13.739-88.96-1.792-110.165-36.608-16-26.411-16.256-59.605-0.683-88.832 11.52-21.547 29.995-38.272 51.883-47.957-9.344-14.635-14.976-31.147-16.085-48.171-1.707-25.941 7.296-50.859 24.747-68.352 16.085-16.085 38.059-24.96 61.781-24.96 30.933 0 59.776 14.165 79.573 37.461 19.797-23.296 48.64-37.461 79.531-37.461 23.723 0 45.653 8.875 61.781 24.96 17.451 17.451 26.453 42.325 24.747 68.352-1.109 16.981-6.741 33.536-16.085 48.171 21.845 9.685 40.363 26.411 51.883 48 15.573 29.099 15.317 62.336-0.725 88.789zM953.557 123.606c-10.837-20.309-31.957-33.536-55.040-34.645-8.917-0.384-16.683-6.315-19.371-14.933-2.688-8.533 0.256-17.835 7.381-23.296 15.573-11.947 25.173-28.8 26.325-46.208 0.896-13.739-3.584-26.624-12.331-35.371-10.325-10.283-22.912-12.459-31.616-12.459-21.163 0-48.768 13.781-59.435 44.032-3.029 8.533-11.093 14.251-20.139 14.251s-17.109-5.717-20.139-14.251c-10.667-30.251-38.272-44.032-59.435-44.032-8.747 0-21.291 2.176-31.616 12.459-8.747 8.747-13.227 21.632-12.331 35.371 1.152 17.408 10.709 34.261 26.325 46.208 7.125 5.461 10.069 14.763 7.381 23.296-2.688 8.576-10.453 14.549-19.413 14.933-23.083 1.067-44.16 14.336-54.997 34.645-8.533 16-8.704 32.981-0.469 46.592 14.848 24.448 56.789 27.947 83.797 5.077 7.168-6.144 17.451-6.699 25.301-1.707 7.893 5.077 11.563 14.677 9.003 23.723-5.632 20.096-1.963 41.387 9.771 56.875 18.688 24.619 53.973 24.491 72.619-0.384 11.904-15.872 15.317-36.779 9.301-57.344-2.645-9.088 0.981-18.859 8.96-23.979 7.979-5.077 18.347-4.309 25.557 1.877 27.051 23.723 69.888 20.693 84.992-4.139 8.32-13.568 8.149-30.592-0.384-46.592zM789.333 190.038c-46.763 0-84.821-38.059-84.821-84.821s38.059-84.821 84.821-84.821 84.821 38.059 84.821 84.821-38.059 84.821-84.821 84.821zM789.333 63.062c-23.253 0-42.155 18.901-42.155 42.155s18.901 42.155 42.155 42.155 42.155-18.901 42.155-42.155-18.901-42.155-42.155-42.155z" />
<glyph unicode="&#xf045;" glyph-name="spa-bamboo" d="M894.763 420.694c-2.176 6.144-7.083 10.965-13.269 13.056-1.877 0.64-47.061 15.659-106.411 15.659-35.883 0-69.461-5.504-99.883-16.341-3.84-1.365-7.168-3.243-10.88-4.779 14.72 21.931 28.16 46.336 38.315 73.472 47.104 125.952 6.741 255.403 4.992 260.864-1.963 6.229-6.699 11.221-12.843 13.483-6.144 2.219-12.971 1.621-18.56-1.749-4.907-2.944-120.363-74.112-167.509-200.021-7.253-19.371-12.245-38.741-15.829-57.771l-88.021 405.291c-2.176 9.813-10.837 16.811-20.864 16.811h-213.333c-6.443 0-12.544-2.901-16.597-7.979-4.053-4.992-5.589-11.563-4.267-17.92l213.333-981.333c2.176-9.771 10.837-16.768 20.864-16.768h213.333c6.443 0 12.544 2.901 16.597 7.979 4.053 4.992 5.589 11.563 4.267 17.92l-70.741 325.376c19.115-4.523 49.451-9.941 85.163-9.941 35.883 0 69.461 5.504 99.883 16.341 100.139 35.669 157.824 126.037 160.213 129.877 3.499 5.504 4.224 12.331 2.048 18.475zM548.736 559.36c29.397 78.635 91.008 134.613 125.312 161.152 8.448-42.539 18.091-125.227-11.349-203.819-29.44-78.677-91.093-134.656-125.397-161.152-8.491 42.411-18.133 124.971 11.435 203.819zM354.816 170.667h169.685l9.259-42.667h-169.685l-9.259 42.667zM345.557 213.334l-74.24 341.333h169.685l74.197-341.333h-169.643zM431.744 597.334h-169.685l-9.259 42.667h169.685l9.259-42.667zM366.805 896l46.379-213.333h-169.643l-46.379 213.333h169.643zM401.195-42.666l-27.819 128h169.685l27.819-128h-169.685zM718.165 312.491c-25.771-9.173-54.571-13.824-85.547-13.824-24.704 0-46.805 2.987-63.232 6.187 22.187 26.539 63.744 67.968 120.149 88.064 25.771 9.173 54.571 13.824 85.547 13.824 24.704 0 46.805-2.987 63.232-6.187-22.187-26.496-63.744-67.925-120.149-88.064z" />
<glyph unicode="&#xf046;" glyph-name="spa-lotion" d="M969.131 193.835c-21.333 35.157-69.504 50.048-111.232 36.267-2.091 18.432-8.875 36.011-19.925 50.773-34.773 46.379-105.685 46.72-140.715 0.512-11.179-14.72-18.048-32.384-20.267-50.901-41.685 13.525-89.003-1.835-110.165-36.651-16-26.411-16.299-59.563-0.811-88.704 11.477-21.547 29.995-38.315 51.883-48-9.173-14.464-14.763-30.848-15.957-47.829-1.835-26.155 7.125-51.243 24.704-68.736 16.085-16.085 38.059-24.96 61.781-24.96 30.891 0 59.691 14.208 79.531 37.504 19.797-23.339 48.64-37.504 79.488-37.504 23.765 0 45.739 8.875 61.824 24.96 17.536 17.493 26.496 42.581 24.661 68.736-1.195 16.981-6.741 33.365-15.957 47.829 21.888 9.685 40.405 26.411 51.84 47.957 15.616 29.141 15.317 62.336-0.683 88.747zM932.224 125.142c-10.752-20.267-31.872-33.536-55.083-34.645-8.96-0.427-16.725-6.4-19.371-15.019s0.384-17.92 7.552-23.339c15.36-11.563 24.875-28.288 26.112-45.824 0.981-13.867-3.499-26.837-12.288-35.627-10.325-10.283-22.912-12.459-31.659-12.459-21.803 0-48.64 13.611-59.392 44.075-2.987 8.491-11.051 14.208-20.096 14.208s-17.109-5.717-20.096-14.208c-10.752-30.464-37.589-44.075-59.435-44.075-8.747 0-21.333 2.176-31.659 12.459-8.789 8.789-13.269 21.76-12.288 35.627 1.237 17.536 10.709 34.261 26.112 45.824 7.168 5.419 10.197 14.763 7.552 23.339s-10.411 14.592-19.371 15.019c-23.211 1.109-44.373 14.421-55.125 34.645-8.491 15.957-8.619 32.939-0.384 46.549 14.891 24.576 57.259 27.861 83.669 5.12 7.125-6.144 17.451-6.912 25.344-1.835 7.936 5.035 11.648 14.677 9.088 23.723-5.675 20.48-2.133 41.216 9.771 56.917 18.731 24.619 54.016 24.491 72.576-0.299 11.733-15.701 15.232-37.163 9.301-57.387-2.645-9.131 1.024-18.901 9.045-23.979s18.475-4.309 25.557 2.005c26.453 23.339 69.589 20.992 84.907-4.224 8.363-13.653 8.192-30.592-0.341-46.592zM768 191.488c-46.763 0-84.821-38.059-84.821-84.821s38.059-84.821 84.821-84.821 84.821 38.059 84.821 84.821-38.059 84.821-84.821 84.821zM768 64.512c-23.253 0-42.155 18.901-42.155 42.155s18.901 42.155 42.155 42.155 42.155-18.901 42.155-42.155-18.901-42.155-42.155-42.155zM554.667-42.666h-320c-35.285 0-64 28.715-64 64v554.667c0 35.285 28.715 64 64 64h341.333c35.285 0 64-28.715 64-64v-234.667c0-11.776 9.557-21.333 21.333-21.333s21.333 9.557 21.333 21.333v234.667c0 58.837-47.872 106.667-106.667 106.667h-70.869l-37.333 93.269c-3.243 8.107-11.051 13.397-19.797 13.397h-21.333v106.667h128c11.776 0 21.333 9.557 21.333 21.333s-9.557 21.333-21.333 21.333h-298.667c-6.357 0-12.416-2.816-16.469-7.765l-87.979-106.667c-7.509-9.088-6.229-22.528 2.859-30.037 3.968-3.285 8.789-4.864 13.568-4.864 6.187 0 12.245 2.645 16.469 7.765l81.621 98.901h117.931v-106.667h-21.333c-8.747 0-16.555-5.291-19.797-13.397l-37.333-93.269h-70.869c-58.795 0-106.667-47.829-106.667-106.667v-554.667c0-58.837 47.872-106.667 106.667-106.667h320c11.776 0 21.333 9.557 21.333 21.333s-9.557 21.333-21.333 21.333zM377.088 746.667h56.448l25.6-64h-107.648l25.6 64z" />
<glyph unicode="&#xf047;" glyph-name="arrows" d="M974.379 165.078l-233.344 213.333c-4.096 3.712-9.216 5.589-14.379 5.589v298.667h105.344c8.832 0 16.725 5.419 19.883 13.611 3.2 8.192 0.981 17.536-5.504 23.467l-233.344 213.333c-8.149 7.467-20.608 7.424-28.757 0l-234.667-213.333c-6.485-5.888-8.704-15.232-5.504-23.424 3.157-8.235 11.093-13.653 19.883-13.653h106.667v-148.437l-156.245 142.848c-8.149 7.467-20.608 7.424-28.757 0l-234.667-213.333c-6.528-5.888-8.747-15.275-5.547-23.467 3.157-8.192 11.093-13.611 19.883-13.611h106.667v-490.667c0-11.776 9.557-21.333 21.333-21.333h213.333c11.776 0 21.333 9.557 21.333 21.333v490.667h42.667v-490.667c0-11.776 9.557-21.333 21.333-21.333h341.333c11.776 0 21.333 9.557 21.333 21.333v192h105.344c8.832 0 16.725 5.419 19.883 13.611 3.2 8.192 1.024 17.536-5.504 23.467zM406.656 469.334c-11.776 0-21.333-9.557-21.333-21.333v-490.667h-170.667v490.667c0 11.776-9.557 21.333-21.333 21.333h-72.789l179.413 163.115 178.432-163.115h-71.723zM533.333 426.667c8.832 0 16.725 5.419 19.883 13.611 3.2 8.192 0.981 17.536-5.504 23.467l-34.389 31.445v208.811c0 11.776-9.557 21.333-21.333 21.333h-72.789l179.456 163.115 178.389-163.115h-71.723c-11.776 0-21.333-9.557-21.333-21.333v-351.317l-170.667-155.136v229.12h20.011zM513.323 128h85.333v-170.667h-85.333v170.667zM833.323 170.667c-11.776 0-21.333-9.557-21.333-21.333v-192h-170.667v192c0 11.776-9.557 21.333-21.333 21.333h-72.832l169.173 153.813c2.261 1.365 4.139 3.072 5.717 5.163l4.523 4.139 178.475-163.115h-71.723z" />
<glyph unicode="&#xf048;" glyph-name="gym-1" d="M938.667 85.334h-40.32c24.875 25.472 40.32 60.117 40.32 98.475 0 64.896-43.947 121.216-106.923 136.917l-52.181 13.056 73.771 498.219c0 58.795-47.872 106.667-106.667 106.667h-128c-11.776 0-21.333-9.557-21.333-21.333s9.557-21.333 21.333-21.333h128c35.285 0 64-28.715 64.213-60.885l-72.917-490.965-353.963 88.491v122.027h101.419c35.925 0 64.043 25.003 68.48 60.8 4.437 35.84-16.853 66.901-51.669 75.605l-212.096 53.035c-7.68 1.92-15.573 2.901-23.467 2.901-52.907 0-96-43.136-96-96.171s43.136-96.171 96.171-96.171h74.496v-111.36l-39.723 9.899c-16.725 4.224-33.835 6.315-50.816 6.315-114.773 0.043-208.128-93.525-208.128-208.427 0-67.883 33.067-127.659 83.456-165.76h-40.789c-47.061 0-85.333-38.229-85.333-85.333 0-47.061 38.272-85.333 85.333-85.333h853.333c47.061 0 85.333 38.272 85.333 85.333 0 47.104-38.272 85.333-85.333 85.333zM213.333 650.838c0 29.483 23.936 53.504 53.333 53.504 4.395 0 8.789-0.555 13.141-1.621l212.053-52.992c21.461-5.376 20.139-25.131 19.669-29.056-0.469-3.883-3.968-23.339-26.112-23.339h-218.581c-29.525 0-53.504 23.979-53.504 53.504zM85.333 251.094c0 91.435 74.24 165.803 165.461 165.803 13.525 0 27.136-1.664 40.491-5.035l530.133-132.523c43.904-10.965 74.581-50.261 74.581-95.531 0-54.315-44.16-98.475-98.475-98.475h-546.432c-91.392 0-165.76 74.368-165.76 165.76zM938.667-42.666h-853.333c-23.509 0-42.667 19.157-42.667 42.667s19.157 42.667 42.667 42.667h853.333c23.509 0 42.667-19.157 42.667-42.667s-19.157-42.667-42.667-42.667zM490.667 170.667h-74.624l-120.277 160.768c-7.040 9.429-20.395 11.435-29.867 4.352-9.429-7.083-11.392-20.437-4.309-29.867l101.163-135.253h-41.856c-11.776 0-21.333-9.557-21.333-21.333s9.557-21.333 21.333-21.333h169.771c11.776 0 21.333 9.557 21.333 21.333s-9.557 21.333-21.333 21.333z" />
<glyph unicode="&#xf049;" glyph-name="gym-2" d="M817.749 597.504l35.413-0.171c82.347 0 149.333 66.987 149.333 149.333s-66.987 149.333-149.333 149.333h-192c-11.776 0-21.333-9.557-21.333-21.333s9.557-21.333 21.333-21.333h192c58.795 0 106.667-47.829 106.667-106.667s-47.829-106.667-106.667-106.667l-34.645 0.171c-30.72 0.299-65.664 1.152-90.837-32.896l-186.155-352c-18.304 15.787-29.653 39.083-29.653 64.725v85.333c0 11.776-9.557 21.333-21.333 21.333h-118.528l-153.6 170.667h90.752c27.051 0 48.725 18.731 52.608 45.611 3.925 26.88-11.477 51.072-37.419 58.837-221.483 66.219-234.795 66.219-239.189 66.219-47.061 0-85.333-38.272-85.333-85.333s38.272-85.333 85.333-85.333h75.819l153.6-170.667h-58.752c-117.632 0-213.333-95.701-213.333-213.333 0-95.744 63.872-176.043 150.912-202.923l-38.016-38.016c-8.32-8.32-8.32-21.845 0-30.165 4.181-4.139 9.643-6.229 15.104-6.229s10.923 2.091 15.104 6.229l58.88 58.923c3.84-0.256 7.467-1.152 11.349-1.152h458.667c18.731 0 36.096 5.589 50.901 14.933l72.704-72.661c4.181-4.181 9.643-6.229 15.104-6.229s10.923 2.091 15.104 6.229c8.32 8.32 8.32 21.845 0 30.165l-72.704 72.661c9.344 14.848 14.933 32.171 14.933 50.901 0 47.573-35.456 88.448-79.189 94.293l-149.504 45.739c-0.683 0.128-1.28 0.384-1.92 0.555l183.637 347.947c9.856 13.099 25.301 13.653 54.187 12.971zM42.496 682.667c0 23.552 19.157 42.667 41.472 42.709 12.032-1.365 105.856-27.904 228.224-64.512 7.595-2.219 7.893-8.32 7.381-11.733s-2.517-9.131-10.411-9.131h-224c-23.509 0-42.667 19.115-42.667 42.667zM722.091 148.779c26.069-3.669 45.739-26.325 45.739-52.779 0-29.397-23.936-53.333-53.333-53.333h-458.667c-94.123 0-170.667 76.544-170.667 170.667s76.544 170.667 170.667 170.667h213.333v-64c0-49.493 28.459-92.885 69.632-113.792 0.213-0.128 0.384-0.384 0.597-0.512 0.256-0.128 0.597-0.085 0.853-0.213 9.899-4.864 20.309-8.832 31.445-10.837l150.4-45.867zM469.163 128h-33.835l-42.24 42.24c7.467 12.715 12.075 27.349 12.075 43.093 0 47.061-38.272 85.333-85.333 85.333s-85.333-38.272-85.333-85.333 38.272-85.333 85.333-85.333c15.787 0 30.379 4.565 43.093 12.075l12.075-12.075h-12.501c-11.776 0-21.333-9.557-21.333-21.333s9.557-21.333 21.333-21.333h106.667c11.776 0 21.333 9.557 21.333 21.333s-9.557 21.333-21.333 21.333zM277.163 213.334c0 23.552 19.157 42.667 42.667 42.667s42.667-19.115 42.667-42.667-19.157-42.667-42.667-42.667-42.667 19.115-42.667 42.667z" />
<glyph unicode="&#xf050;" glyph-name="home" d="M874.667 362.667c-11.776 0-21.333-9.557-21.333-21.333v-384h-213.333v277.333c0 11.776-9.557 21.333-21.333 21.333h-213.333c-11.776 0-21.333-9.557-21.333-21.333v-277.333h-213.333v405.333c0 11.776-9.557 21.333-21.333 21.333s-21.333-9.557-21.333-21.333v-426.667c0-11.819 9.557-21.333 21.333-21.333h256c11.776 0 21.333 9.557 21.333 21.333v277.333h170.667v-277.333c0-11.776 9.557-21.333 21.333-21.333h256c11.776 0 21.333 9.557 21.333 21.333v405.333c0 11.776-9.557 21.333-21.333 21.333zM1017.771 399.062l-490.667 490.667c-8.32 8.32-21.845 8.32-30.165 0l-490.667-490.667c-8.32-8.32-8.32-21.845 0-30.165s21.845-8.32 30.165 0l475.563 475.563 475.563-475.563c4.181-4.181 9.643-6.229 15.104-6.229s10.923 2.091 15.104 6.229c8.32 8.32 8.32 21.845 0 30.165zM682.667 810.667h128v-128c0-11.776 9.557-21.333 21.333-21.333s21.333 9.515 21.333 21.333v149.333c0 11.776-9.557 21.333-21.333 21.333h-149.333c-11.776 0-21.333-9.557-21.333-21.333s9.557-21.333 21.333-21.333z" />
<glyph unicode="&#xf051;" glyph-name="location" d="M512 938.667c-188.203 0-341.333-153.131-341.333-341.333 0-181.12 310.315-653.099 323.541-673.067 3.925-6.016 10.624-9.6 17.792-9.6s13.867 3.584 17.792 9.6c13.227 19.968 323.541 491.947 323.541 673.067 0 188.203-153.131 341.333-341.333 341.333zM512-24.746c-66.816 104.448-298.667 477.184-298.667 622.080 0 164.693 133.973 298.667 298.667 298.667s298.667-133.973 298.667-298.667c0-144.853-231.851-517.632-298.667-622.080zM512 746.667c-82.347 0-149.333-66.987-149.333-149.333s66.987-149.333 149.333-149.333 149.333 66.987 149.333 149.333-66.987 149.333-149.333 149.333zM512 490.667c-58.795 0-106.667 47.872-106.667 106.667s47.872 106.667 106.667 106.667 106.667-47.872 106.667-106.667-47.872-106.667-106.667-106.667z" />
<glyph unicode="&#xf052;" glyph-name="map" d="M640 875.862l256-182.869v-202.325c0-11.776 9.557-21.333 21.333-21.333s21.333 9.557 21.333 21.333v213.333c0 6.912-3.328 13.355-8.917 17.365l-298.667 213.333c-0.384 0.256-0.896 0.128-1.28 0.427-3.285 2.048-6.955 3.541-11.136 3.541s-7.851-1.493-11.136-3.541c-0.384-0.256-0.896-0.128-1.28-0.427l-286.251-204.501-286.251 204.501c-6.485 4.693-15.061 5.291-22.187 1.621s-11.563-10.965-11.563-18.987v-682.667c0-6.912 3.328-13.355 8.917-17.365l298.667-213.333c0.384-0.299 0.896-0.171 1.28-0.427 3.285-2.048 6.955-3.541 11.136-3.541s7.851 1.493 11.136 3.541c0.384 0.256 0.896 0.128 1.28 0.427l256 182.869c9.6 6.827 11.819 20.181 4.949 29.739-6.869 9.6-20.139 11.819-29.739 4.992l-222.293-158.805v630.272l256 182.869v-385.237c0-11.776 9.557-21.333 21.333-21.333s21.333 9.557 21.333 21.333v385.195zM42.667 875.862l256-182.869v-630.229l-256 182.827v630.272zM832 426.667c-105.856 0-192-86.144-192-192 0-99.115 157.653-290.816 175.616-312.32 4.053-4.864 10.069-7.68 16.384-7.68s12.331 2.816 16.384 7.68c17.963 21.504 175.616 213.205 175.616 312.32 0 105.856-86.144 192-192 192zM832-30.165c-53.12 66.816-149.333 201.173-149.333 264.832 0 82.347 66.987 149.333 149.333 149.333s149.333-66.987 149.333-149.333c0-63.616-96.256-197.973-149.333-264.832zM832 320c-47.061 0-85.333-38.272-85.333-85.333s38.272-85.333 85.333-85.333 85.333 38.272 85.333 85.333c0 47.061-38.272 85.333-85.333 85.333zM832 192c-23.509 0-42.667 19.157-42.667 42.667s19.157 42.667 42.667 42.667 42.667-19.157 42.667-42.667-19.157-42.667-42.667-42.667z" />
<glyph unicode="&#xf053;" glyph-name="coupon" d="M1002.667 533.334c11.776 0 21.333 9.557 21.333 21.333v192c0 11.776-9.557 21.333-21.333 21.333h-981.333c-11.776 0-21.333-9.557-21.333-21.333v-192c0-11.776 9.557-21.333 21.333-21.333 58.837 0 106.667-47.872 106.667-106.667s-47.829-106.667-106.667-106.667c-11.776 0-21.333-9.557-21.333-21.333v-192c0-11.776 9.557-21.333 21.333-21.333h981.333c11.776 0 21.333 9.557 21.333 21.333v192c0 11.776-9.557 21.333-21.333 21.333-58.837 0-106.667 47.872-106.667 106.667s47.829 106.667 106.667 106.667zM981.333 278.87v-150.869h-938.667v150.869c72.277 10.368 128 72.661 128 147.797 0 75.093-55.723 137.429-128 147.797v150.869h938.667v-150.869c-72.277-10.368-128-72.704-128-147.797 0-75.136 55.723-137.429 128-147.797zM768 682.667h42.667v-42.667h-42.667v42.667zM768 597.334h42.667v-42.667h-42.667v42.667zM768 512h42.667v-42.667h-42.667v42.667zM768 384h42.667v-42.667h-42.667v42.667zM768 298.667h42.667v-42.667h-42.667v42.667zM768 213.334h42.667v-42.667h-42.667v42.667zM655.104 612.438c-8.32 8.32-21.845 8.32-30.165 0l-341.333-341.333c-8.32-8.32-8.32-21.845 0-30.165 4.139-4.181 9.6-6.272 15.061-6.272s10.923 2.091 15.104 6.229l341.333 341.333c8.32 8.32 8.32 21.845 0 30.208zM341.333 469.334c47.061 0 85.333 38.272 85.333 85.333s-38.272 85.333-85.333 85.333-85.333-38.272-85.333-85.333c0-47.061 38.272-85.333 85.333-85.333zM341.333 597.334c23.552 0 42.667-19.157 42.667-42.667s-19.115-42.667-42.667-42.667-42.667 19.157-42.667 42.667 19.115 42.667 42.667 42.667zM597.333 384c-47.061 0-85.333-38.272-85.333-85.333s38.272-85.333 85.333-85.333 85.333 38.272 85.333 85.333c0 47.061-38.272 85.333-85.333 85.333zM597.333 256c-23.552 0-42.667 19.157-42.667 42.667s19.115 42.667 42.667 42.667 42.667-19.157 42.667-42.667-19.115-42.667-42.667-42.667z" />
</font>
</defs>
</svg>
